<?xml version="1.0" standalone="no"?>
<!DOCTYPE svg PUBLIC "-//W3C//DTD SVG 1.1//EN" "http://www.w3.org/Graphics/SVG/1.1/DTD/svg11.dtd" >
<svg xmlns="http://www.w3.org/2000/svg">
<metadata>
Created by FontPrep 20130207 at Thu Feb 19 10:52:26 2015
 By Daniel Lauding
(c) 2011 Klim Type Foundry. All rights reserved.
</metadata>
<defs>
<font id="80d28452511a334d65053d6b8b03dd02" horiz-adv-x='1024' >
  <font-face 
    font-family="Metric-ThinItalic"
    font-weight="250"
    font-style="italic"
    font-stretch="normal"
    units-per-em="2048"
    panose-1="2 11 4 3 3 2 2 13 2 3"
    ascent="1331"
    descent="-717"
    x-height="909"
    cap-height="1257"
    bbox="-358 -369 1800 1827"
    underline-thickness="61"
    underline-position="-82"
    slope="-10"
    unicode-range="U+0020-FB02"
  />
<missing-glyph horiz-adv-x="1245" 
 />
    <glyph glyph-name="f_f" unicode="ff" horiz-adv-x="927" 
d="M1024 1290q-82 0 -140 -56t-77 -161l-29 -164h219l-10 -57h-219l-150 -852h-61l150 852h-383l-150 -852h-61l149 852h-143l10 57h143l29 160q20 119 95 193t182 73q59 0 96 -14l-10 -59q-43 16 -86 16q-82 0 -140 -56t-78 -161l-26 -152h383l31 172q20 119 95 193t181 74
q59 -1 96 -15l-10 -59q-43 16 -86 16z" />
    <glyph glyph-name=".notdef" horiz-adv-x="1245" 
 />
    <glyph glyph-name=".null" horiz-adv-x="0" 
 />
    <glyph glyph-name="nonmarkingreturn" horiz-adv-x="681" 
 />
    <glyph glyph-name="space" unicode=" " horiz-adv-x="452" 
 />
    <glyph glyph-name="exclam" unicode="!" horiz-adv-x="425" 
d="M90 51q0 23 15 39t38 16t38 -16t15 -39t-14 -39q-16 -16 -39 -16t-38 16t-15 39zM184 393l146 864h65l-162 -864h-49z" />
    <glyph glyph-name="quotedbl" unicode="&#x22;" horiz-adv-x="387" 
d="M319 889l66 368h61l-65 -368h-62zM158 889l65 368h62l-66 -368h-61z" />
    <glyph glyph-name="numbersign" unicode="#" horiz-adv-x="1083" 
d="M471 791l-98 -324h303l98 324h-303zM975 467l-10 -53h-248l-125 -414h-57l124 414h-303l-125 -414h-55l125 414h-207l12 53h211l99 324h-242l10 53h248l125 413h57l-127 -413h304l127 413h55l-125 -413h207l-13 -53h-211l-98 -324h242z" />
    <glyph glyph-name="dollar" unicode="$" horiz-adv-x="870" 
d="M358 94q156 0 250 77t94 204q0 67 -40 111t-142 94l-160 75q-202 94 -202 248t115 237q116 83 272 85l35 192h57l-35 -194q156 -16 248 -97l-14 -73q-109 111 -287 110q-139 0 -235 -66q-95 -67 -95 -196q0 -67 46 -111t138 -88l162 -77q103 -49 151 -107t48 -143
q0 -143 -106 -237t-265 -105l-37 -201h-57l35 201q-209 6 -311 123l12 75q125 -137 323 -137z" />
    <glyph glyph-name="percent" unicode="%" horiz-adv-x="1226" 
d="M859 424q-77 0 -134 -58t-57 -136t54 -132q54 -53 131 -53t134 58q57 59 57 137t-54 131t-131 53zM1106 244q0 -102 -75 -181t-179 -79t-175 70t-71 171t75 181t179 80t175 -70t71 -172zM74 0l1024 1257h65l-1024 -1257h-65zM378 834q77 0 134 58t57 136t-54 131t-131 53
t-134 -58t-57 -136t54 -131t131 -53zM385 1274q104 0 175 -70t71 -172t-75 -181t-179 -79t-175 70t-71 172t75 181t179 79z" />
    <glyph glyph-name="ampersand" unicode="&#x26;" horiz-adv-x="1136" 
d="M127 318q0 -124 82 -200t209 -77q223 0 375 158l-373 460q-8 8 -10 13q-123 -31 -203 -130q-80 -100 -80 -224zM642 1274q150 0 257 -90l-14 -70q-113 102 -241 102t-211 -72q-83 -73 -83 -202q0 -68 31 -124t96 -136l354 -438q113 139 152 358l61 -2q-39 -236 -178 -399
l164 -201h-74l-129 158q-170 -174 -407 -174q-156 0 -256 92t-100 236t86 254q88 110 223 151q-86 117 -86 225q0 152 102 242q103 90 253 90z" />
    <glyph glyph-name="quotesingle" unicode="'" horiz-adv-x="225" 
d="M158 889l65 368h62l-66 -368h-61z" />
    <glyph glyph-name="parenleft" unicode="(" horiz-adv-x="671" 
d="M80 430q0 330 187 570t509 331l-10 -59q-295 -102 -460 -320t-165 -522q1 -213 99 -351t282 -194l-10 -57q-208 57 -320 215t-112 387z" />
    <glyph glyph-name="parenright" unicode=")" horiz-adv-x="671" 
d="M639 729q0 -329 -187 -569t-509 -332l10 59q295 101 460 319t165 523q0 213 -98 351t-283 194l10 57q207 -57 319 -215t113 -387z" />
    <glyph glyph-name="asterisk" unicode="*" horiz-adv-x="618" 
d="M406 795l-50 8l39 221l-211 -76l-16 43l213 78l-174 145l31 35l172 -143l39 221l49 -8l-39 -221l211 76l16 -44l-213 -77l174 -146l-31 -35l-172 144z" />
    <glyph glyph-name="plus" unicode="+" horiz-adv-x="1013" 
d="M563 963h60l-60 -334h336l-10 -60h-336l-57 -333h-60l58 333h-332l10 60h332z" />
    <glyph glyph-name="comma" unicode="," horiz-adv-x="241" 
d="M4 51q0 23 15 39t38 16t38 -16q34 -37 -7 -98l-129 -191h-51l135 201q-39 6 -39 49z" />
    <glyph glyph-name="hyphen" unicode="-" horiz-adv-x="657" 
d="M90 500l10 59h494l-10 -59h-494z" />
    <glyph glyph-name="period" unicode="." horiz-adv-x="241" 
d="M4 51q0 23 15 39t38 16t38 -16t15 -39t-14 -39q-16 -16 -39 -16t-38 16t-15 39z" />
    <glyph glyph-name="slash" unicode="/" horiz-adv-x="587" 
d="M-98 -172l770 1503h63l-772 -1503h-61z" />
    <glyph glyph-name="zero" unicode="0" horiz-adv-x="1093" 
d="M500 -16q-176 0 -279 132q-102 132 -102 357q1 325 157 563t392 238q176 0 278 -132t103 -358q-1 -326 -157 -563t-392 -237zM498 43q205 0 346 220t141 521q0 199 -84 315t-231 115q-205 0 -346 -220t-142 -521q0 -199 84 -315t232 -115z" />
    <glyph glyph-name="one" unicode="1" horiz-adv-x="651" 
d="M606 1262l-221 -1262h-63l206 1180l-372 -176l12 71l397 187h41z" />
    <glyph glyph-name="two" unicode="2" horiz-adv-x="890" 
d="M-29 0v8l508 481q9 7 61 55t69 66t59 62t61 74q18 30 53 88t35 158q0 102 -61 162t-187 60q-193 0 -387 -176l15 80q174 156 383 156q147 0 223 -76t76 -209q1 -55 -19 -119q-20 -63 -50 -106t-51 -76t-129 -135q-107 -102 -118 -113l-399 -379h647l-10 -61h-779z" />
    <glyph glyph-name="three" unicode="3" horiz-adv-x="890" 
d="M952 1257v-8l-483 -491q147 -4 245 -92t97 -232q0 -182 -136 -316t-335 -134t-326 112l15 80q109 -133 317 -133q164 0 284 113t120 278q0 127 -90 200t-240 73q-23 0 -72 -5v9l469 485h-614l12 61h737z" />
    <glyph glyph-name="four" unicode="4" horiz-adv-x="1011" 
d="M55 326v8l584 923h70l-549 -870h499l56 318h63l-55 -318h250l-10 -61h-250l-58 -326h-63l57 326h-594z" />
    <glyph glyph-name="five" unicode="5" horiz-adv-x="878" 
d="M811 418q0 -166 -136 -300t-335 -134t-326 112l15 80q109 -133 317 -133q164 0 284 113t120 278q0 123 -82 195q-82 71 -210 71t-205 -30q-26 -10 -81 -33l111 620h612l-12 -61h-555l-82 -473q94 37 207 37q160 0 259 -88t99 -254z" />
    <glyph glyph-name="six" unicode="6" horiz-adv-x="976" 
d="M480 43q146 0 258 114q114 114 114 265q0 152 -91 244t-238 92t-261 -112t-112 -263q0 -151 92 -245t238 -95zM480 -16q-170 0 -282 108t-112 276q0 167 131 330l449 559h73l-395 -493q86 53 184 53q170 1 279 -109t109 -285t-133 -307q-132 -132 -303 -132z" />
    <glyph glyph-name="seven" unicode="7" horiz-adv-x="886" 
d="M995 1257v-8l-788 -1249h-72l758 1196h-717l12 61h807z" />
    <glyph glyph-name="eight" unicode="8" horiz-adv-x="976" 
d="M897 980q0 108 -80 172t-210 64t-224 -83t-94 -193t82 -174q81 -64 209 -64t223 85q94 85 94 193zM461 -16q-175 0 -289 86t-115 231t95 249t243 136q-78 34 -123 100t-45 148q0 137 112 238q112 102 266 102q153 0 253 -78t100 -198t-76 -211q-77 -89 -198 -121
q104 -41 162 -119t59 -180q0 -160 -134 -272q-135 -111 -310 -111zM121 322q0 -128 96 -204q97 -76 247 -77q150 0 264 95q114 94 114 226t-98 208t-248 77q-152 0 -264 -98q-111 -99 -111 -227z" />
    <glyph glyph-name="nine" unicode="9" horiz-adv-x="976" 
d="M572 1214q-146 0 -260 -114t-114 -264q0 -152 92 -244t238 -92t260 112t113 262q0 152 -92 246q-91 94 -237 94zM571 1274q171 0 283 -109t111 -275q0 -166 -131 -331l-449 -559h-74l396 494q-86 -53 -185 -54q-170 0 -278 110t-109 284q0 174 132 308q133 132 304 132z
" />
    <glyph glyph-name="colon" unicode=":" horiz-adv-x="241" 
d="M127 748q0 22 15 38t38 16t38 -16t15 -38t-15 -39t-38 -17t-38 16t-15 40zM4 51q0 23 15 39t38 16t38 -16t15 -39t-14 -39q-16 -16 -39 -16t-38 16t-15 39z" />
    <glyph glyph-name="semicolon" unicode=";" horiz-adv-x="241" 
d="M127 748q0 22 15 38t38 16t38 -16t15 -38t-15 -39t-38 -17t-38 16t-15 40zM4 51q0 23 15 39t38 16t38 -16q34 -37 -7 -98l-129 -191h-51l135 201q-39 6 -39 49z" />
    <glyph glyph-name="less" unicode="&#x3c;" horiz-adv-x="776" 
d="M131 571l8 50l584 305l-12 -70l-514 -264l419 -264l-10 -62z" />
    <glyph glyph-name="equal" unicode="=" 
d="M186 694l11 60h729l-11 -60h-729zM143 449l11 59h729l-11 -59h-729z" />
    <glyph glyph-name="greater" unicode="&#x3e;" horiz-adv-x="776" 
d="M690 621l-8 -50l-584 -305l13 70l514 264l-420 264l10 62z" />
    <glyph glyph-name="question" unicode="?" horiz-adv-x="847" 
d="M305 51q-1 23 15 39t38 16t38 -16t16 -39t-16 -39t-38 -16q-23 0 -38 16t-15 39zM563 1214q-199 0 -401 -194l14 82q177 172 406 172q124 0 203 -72t79 -194t-61 -203q-61 -80 -165 -176q-103 -96 -133 -139q-30 -42 -44 -95h-60q25 106 140 217q12 12 55 52
q135 127 171 197t36 156q-1 85 -63 141t-177 56z" />
    <glyph glyph-name="at" unicode="@" horiz-adv-x="1585" 
d="M842 735q-144 0 -240 -131t-96 -282q0 -98 51 -154t137 -57q133 -1 256 161l72 306q-20 70 -68 114t-112 43zM1452 580q0 222 -157 364q-157 141 -412 141q-322 0 -534 -224q-212 -225 -212 -525q-1 -300 191 -448t450 -148t447 90l-6 -59q-195 -86 -422 -86
q-297 0 -499 150q-101 75 -161 199q-59 124 -59 285q0 342 229 583t578 241q283 0 455 -159q172 -160 171 -406q0 -246 -125 -388t-290 -141q-72 0 -117 35t-47 98q-111 -127 -236 -127t-186 73t-61 194q0 180 112 324q113 144 283 145q74 0 126 -39t74 -93l29 117h57
l-131 -540q-31 -131 101 -132q145 0 249 127q103 127 103 349z" />
    <glyph glyph-name="A" unicode="A" horiz-adv-x="1161" 
d="M745 1169l-399 -669h535zM731 1257h57l254 -1257h-61l-88 440h-584l-262 -440h-70z" />
    <glyph glyph-name="B" unicode="B" horiz-adv-x="1050" 
d="M524 61q176 -1 278 91t103 241q0 106 -71 167q-72 60 -211 61h-351l-98 -560h350zM584 678q176 0 278 79t103 228q0 211 -289 211h-303l-90 -518h301zM502 0h-402l222 1257h366q168 -1 254 -71t86 -207t-82 -220t-196 -110q98 -16 158 -86t61 -170q0 -181 -130 -287
t-337 -106z" />
    <glyph glyph-name="C" unicode="C" horiz-adv-x="1087" 
d="M580 -16q-200 0 -335 154q-134 154 -134 399q0 305 182 521t469 216q207 0 344 -123l-12 -72q-133 133 -332 133q-252 0 -419 -196t-167 -479q0 -219 116 -355t302 -136t336 104l-15 -78q-135 -88 -335 -88z" />
    <glyph glyph-name="D" unicode="D" horiz-adv-x="1236" 
d="M682 1257q240 0 374 -140t134 -378q0 -327 -212 -533t-517 -206h-361l222 1257h360zM475 61q273 1 461 191t188 487q0 211 -117 334q-118 123 -333 123h-301l-199 -1135h301z" />
    <glyph glyph-name="E" unicode="E" horiz-adv-x="1056" 
d="M322 1257h763l-12 -61h-700l-90 -518h635l-11 -60h-635l-98 -557h700l-10 -61h-764z" />
    <glyph glyph-name="F" unicode="F" horiz-adv-x="952" 
d="M164 0h-64l222 1257h700l-12 -61h-637l-90 -520h606l-10 -60h-607z" />
    <glyph glyph-name="G" unicode="G" horiz-adv-x="1191" 
d="M622 -16q-236 0 -373 152q-138 152 -138 401q0 305 182 521t469 216q229 0 385 -139l-12 -72q-150 150 -373 149q-252 0 -419 -196t-167 -479q0 -221 119 -357t321 -135q202 0 349 113l73 411h-346l10 56h406l-86 -492q-164 -149 -400 -149z" />
    <glyph glyph-name="H" unicode="H" horiz-adv-x="1327" 
d="M1245 1257h64l-222 -1257h-63l109 618h-861l-108 -618h-64l222 1257h63l-102 -577h860z" />
    <glyph glyph-name="I" unicode="I" horiz-adv-x="403" 
d="M385 1257l-221 -1257h-64l222 1257h63z" />
    <glyph glyph-name="J" unicode="J" horiz-adv-x="751" 
d="M232 45q130 0 199 72t99 250l158 890h64l-158 -890q-37 -205 -123 -294t-238 -89q-78 0 -144 28t-101 62l12 69q102 -98 232 -98z" />
    <glyph glyph-name="K" unicode="K" horiz-adv-x="1064" 
d="M385 1257l-102 -583l782 583h94l-825 -612l620 -645h-84l-598 621l-108 -621h-64l222 1257h63z" />
    <glyph glyph-name="L" unicode="L" horiz-adv-x="1028" 
d="M100 0l222 1257h63l-211 -1196h713l-10 -61h-777z" />
    <glyph glyph-name="M" unicode="M" horiz-adv-x="1482" 
d="M727 297h-6l-361 836l-198 -1133h-62l222 1257h49l368 -854l674 854h51l-221 -1257h-61l196 1120z" />
    <glyph glyph-name="N" unicode="N" horiz-adv-x="1251" 
d="M1233 1257l-221 -1257h-35l-610 1167l-205 -1167h-62l222 1257h61l590 -1124l198 1124h62z" />
    <glyph glyph-name="O" unicode="O" horiz-adv-x="1257" 
d="M574 -16q-198 0 -331 150q-134 150 -134 394q-1 184 71 352t219 282q147 112 345 112t332 -151t134 -394q0 -184 -72 -352t-218 -281q-148 -112 -346 -112zM575 45q177 0 308 101q262 202 262 602q0 194 -112 329t-289 135t-308 -101q-130 -101 -196 -255t-66 -348
t112 -328q112 -135 289 -135z" />
    <glyph glyph-name="P" unicode="P" horiz-adv-x="1071" 
d="M651 633q174 0 276 87q101 87 101 249q0 111 -72 169t-211 58h-370l-101 -563h377zM643 571h-379l-100 -571h-64l222 1257h438q158 1 245 -73t87 -215q0 -190 -124 -294t-325 -104z" />
    <glyph glyph-name="Q" unicode="Q" horiz-adv-x="1257" 
d="M590 45q150 0 266 76l-90 153l49 29l88 -149q115 92 178 246t64 319q0 217 -115 355t-292 138t-307 -101t-192 -252q-63 -151 -63 -344t115 -331t299 -139zM590 -16q-207 0 -343 154t-136 401q0 182 70 348q71 167 216 277t343 110t334 -154t136 -401q0 -180 -72 -347
t-204 -272l72 -120l-50 -31l-69 119q-133 -84 -297 -84z" />
    <glyph glyph-name="R" unicode="R" horiz-adv-x="1107" 
d="M637 633q174 0 275 88t102 246q0 111 -77 170t-218 59h-346l-99 -563h363zM735 1257q156 1 249 -75t93 -230t-106 -258q-106 -102 -281 -119l283 -575h-66l-284 573h-359l-100 -573h-64l222 1257h413z" />
    <glyph glyph-name="S" unicode="S" horiz-adv-x="950" 
d="M397 45q168 0 272 85q103 85 103 224q0 74 -46 123t-155 101l-172 81q-61 29 -102 56t-79 83t-38 126q0 168 127 259t315 91t306 -107l-15 -75q-119 121 -311 120q-152 0 -255 -74t-103 -214q0 -72 50 -120t150 -95l177 -84q215 -103 215 -269t-126 -269t-313 -103
q-241 0 -364 133l14 78q133 -150 350 -150z" />
    <glyph glyph-name="T" unicode="T" horiz-adv-x="1142" 
d="M195 1196l12 61h1016l-13 -61h-477l-209 -1196h-63l209 1196h-475z" />
    <glyph glyph-name="U" unicode="U" horiz-adv-x="1236" 
d="M578 -16q-196 0 -316 104q-119 104 -119 295q0 45 11 111l135 763h63l-133 -753q-10 -66 -10 -111q0 -172 100 -261t271 -89t294 116t164 345l133 753h64l-135 -763q-46 -254 -186 -382t-336 -128z" />
    <glyph glyph-name="V" unicode="V" horiz-adv-x="1161" 
d="M504 0h-53l-250 1257h63l230 -1161l702 1161h68z" />
    <glyph glyph-name="W" unicode="W" horiz-adv-x="1542" 
d="M895 1257h53l96 -1140l537 1140h64l-592 -1257h-56l-98 1137l-534 -1137h-56l-108 1257h61l96 -1140z" />
    <glyph glyph-name="X" unicode="X" horiz-adv-x="1093" 
d="M1171 1257l-555 -622l322 -635h-68l-297 586l-524 -586h-78l576 643l-314 614h68l289 -565l504 565h77z" />
    <glyph glyph-name="Y" unicode="Y" horiz-adv-x="1062" 
d="M557 608l535 649h73l-583 -708l-97 -549h-63l96 549l-334 708h68z" />
    <glyph glyph-name="Z" unicode="Z" horiz-adv-x="1042" 
d="M-31 0v8l1053 1188h-778l12 61h891v-8l-1051 -1188h799l-10 -61h-916z" />
    <glyph glyph-name="bracketleft" unicode="[" horiz-adv-x="634" 
d="M377 1274l-244 -1389h344l-10 -57h-404l265 1503h403l-10 -57h-344z" />
    <glyph glyph-name="backslash" unicode="\" horiz-adv-x="587" 
d="M242 1331l243 -1503h-59l-244 1503h60z" />
    <glyph glyph-name="bracketright" unicode="]" horiz-adv-x="634" 
d="M295 -115l244 1389h-344l10 57h403l-264 -1503h-403l10 57h344z" />
    <glyph glyph-name="asciicircum" unicode="^" horiz-adv-x="602" 
d="M399 1257h41l158 -350h-68l-120 267l-215 -267h-76z" />
    <glyph glyph-name="underscore" unicode="_" horiz-adv-x="698" 
d="M-41 -145l10 59h617l-11 -59h-616z" />
    <glyph glyph-name="grave" unicode="`" 
d="M610 1071h-59l-129 260h59z" />
    <glyph glyph-name="a" unicode="a" horiz-adv-x="872" 
d="M378 477q-106 0 -194 -62q-88 -63 -88 -163t69 -154t166 -55q97 0 176 43t114 109l24 131q-18 63 -90 107q-71 44 -177 44zM514 868q-150 0 -291 -86l13 70q125 74 261 74q135 0 203 -60t68 -164q0 -23 -6 -59l-113 -643h-61l16 98q-45 -47 -120 -80t-152 -32
q-129 0 -213 72t-84 193q0 120 104 202t246 82q95 0 167 -38t107 -85l41 237q4 33 5 47q-1 80 -51 126t-140 46z" />
    <glyph glyph-name="b" unicode="b" horiz-adv-x="993" 
d="M442 43q129 0 225 81q179 153 179 429q0 145 -66 229t-194 84q-191 1 -334 -202l-74 -418q72 -203 264 -203zM576 926q172 0 252 -104t81 -269q0 -225 -129 -397t-338 -172q-100 0 -173 52q-72 52 -105 126l-29 -162h-61l233 1331h62l-103 -579q138 174 310 174z" />
    <glyph glyph-name="c" unicode="c" horiz-adv-x="819" 
d="M419 -16q-151 0 -244 102t-93 276q0 250 141 407t344 157q160 0 238 -84l-12 -68q-88 94 -240 94t-280 -138t-128 -368q0 -143 77 -232t208 -89t248 80l-14 -74q-94 -63 -245 -63z" />
    <glyph glyph-name="d" unicode="d" horiz-adv-x="993" 
d="M147 345q0 -134 66 -218t195 -84q190 0 333 203l74 418q-72 203 -264 202q-129 0 -224 -81t-137 -193t-43 -247zM417 -16q-171 0 -252 103t-81 269q0 226 129 398t338 172q101 0 173 -52t105 -126l103 583h61l-233 -1331h-62l29 158q-139 -174 -310 -174z" />
    <glyph glyph-name="e" unicode="e" horiz-adv-x="901" 
d="M776 594q0 118 -56 196t-186 78t-232 -100t-138 -252h606q6 41 6 78zM446 39q144 0 267 92l-15 -74q-102 -73 -265 -73t-256 102t-93 281q0 135 50 260t159 212t253 87t218 -88t74 -248q-1 -61 -13 -129h-671q-6 -47 -7 -94q0 -154 78 -241q77 -87 221 -87z" />
    <glyph glyph-name="f" unicode="f" horiz-adv-x="483" 
d="M580 1290q-82 0 -140 -56t-78 -161l-28 -164h219l-10 -57h-219l-150 -852h-61l149 852h-143l10 57h143l31 172q20 119 95 193t182 74q59 -1 96 -15l-10 -59q-43 16 -86 16z" />
    <glyph glyph-name="g" unicode="g" horiz-adv-x="980" 
d="M147 360q0 -130 70 -214t199 -83q179 0 329 205l70 396q-74 203 -264 202q-129 0 -224 -79t-137 -189q-42 -108 -43 -238zM422 4q-170 0 -254 101t-84 264q0 219 129 388t338 169q100 0 173 -52t105 -126l29 161h62l-150 -848q-37 -211 -155 -319t-289 -109
q-88 0 -168 29t-121 70l12 69q99 -109 263 -109q331 1 397 363l22 121q-139 -172 -309 -172z" />
    <glyph glyph-name="h" unicode="h" horiz-adv-x="980" 
d="M618 926q112 0 183 -68q70 -68 69 -182q0 -33 -6 -70l-106 -606h-62l105 598q6 37 6 68q0 92 -51 146t-156 54t-199 -61t-151 -154l-115 -651h-61l233 1331h62l-105 -590q62 81 152 133t202 52z" />
    <glyph glyph-name="i" unicode="i" horiz-adv-x="368" 
d="M358 1186q0 -20 -13 -34t-33 -15q-20 0 -34 14q-14 15 -14 35t14 34t33 15q20 0 34 -14q13 -15 13 -35zM295 909l-160 -909h-61l159 909h62z" />
    <glyph glyph-name="j" unicode="j" horiz-adv-x="368" 
d="M358 1186q0 -20 -13 -34t-33 -15q-20 0 -34 14q-14 15 -14 35t14 34t33 15q20 0 34 -14q13 -15 13 -35zM-121 -307q70 0 110 36t58 130l186 1050h62l-186 -1059q-39 -215 -230 -215q-29 1 -45 5l10 57q16 -4 35 -4z" />
    <glyph glyph-name="k" unicode="k" horiz-adv-x="841" 
d="M291 485l440 -485h-76l-436 475l-84 -475h-61l233 1331h62l-146 -825l568 403h92z" />
    <glyph glyph-name="l" unicode="l" horiz-adv-x="368" 
d="M369 1331l-234 -1331h-61l233 1331h62z" />
    <glyph glyph-name="m" unicode="m" horiz-adv-x="1452" 
d="M1343 692q0 -27 -8 -84l-106 -608h-62l105 600q8 57 8 82q0 184 -172 184q-184 0 -311 -213l-115 -653h-61l104 600q8 57 8 82q0 184 -172 184q-184 0 -311 -213l-115 -653h-61l159 909h62l-29 -164q127 180 303 181q201 -1 226 -191q147 190 321 191q113 0 170 -62
t57 -172z" />
    <glyph glyph-name="n" unicode="n" horiz-adv-x="980" 
d="M807 666q0 92 -51 146t-156 54t-199 -61t-151 -154l-115 -651h-61l159 909h62l-29 -168q60 80 150 132q90 53 202 53t183 -68q70 -68 69 -182q0 -33 -6 -70l-106 -606h-62l105 598q6 37 6 68z" />
    <glyph glyph-name="o" unicode="o" horiz-adv-x="954" 
d="M424 -16q-158 0 -249 104t-91 279q0 247 128 403t318 156q158 0 249 -104t91 -279q0 -247 -128 -403t-318 -156zM424 41q164 0 274 138t109 364q0 149 -75 237t-202 88q-164 0 -274 -138t-109 -363q0 -150 75 -238t202 -88z" />
    <glyph glyph-name="p" unicode="p" horiz-adv-x="993" 
d="M442 43q129 0 225 81q179 153 179 429q0 145 -66 229t-194 84q-191 1 -334 -202l-74 -418q72 -203 264 -203zM576 926q172 0 252 -104t81 -269q0 -225 -129 -397t-338 -172q-100 0 -173 52q-72 52 -105 126l-90 -510h-62l221 1257h62l-29 -157q138 174 310 174z" />
    <glyph glyph-name="q" unicode="q" horiz-adv-x="993" 
d="M147 345q0 -134 66 -218t195 -84q190 0 333 203l74 418q-72 203 -264 202q-129 0 -224 -81t-137 -193t-43 -247zM417 -16q-171 0 -252 103t-81 269q0 226 129 398t338 172q101 0 173 -52t105 -126l29 161h62l-222 -1257h-61l90 506q-139 -174 -310 -174z" />
    <glyph glyph-name="r" unicode="r" horiz-adv-x="585" 
d="M551 868q-88 0 -166 -59t-135 -156l-115 -653h-61l159 909h62l-29 -166q49 80 128 131t167 52q37 -1 68 -11l-11 -57q-31 10 -67 10z" />
    <glyph glyph-name="s" unicode="s" horiz-adv-x="759" 
d="M315 41q113 0 189 55q76 54 76 154t-127 153l-162 70q-80 35 -121 79t-41 118q0 112 88 184q87 72 229 72t259 -99l-13 -69q-111 111 -258 110q-100 0 -171 -55t-70 -143q-1 -53 33 -85t108 -63l166 -71q143 -61 143 -187t-93 -204q-92 -76 -250 -76t-275 102l14 72
q111 -117 276 -117z" />
    <glyph glyph-name="t" unicode="t" horiz-adv-x="561" 
d="M371 852l-150 -852h-61l149 852h-198l10 57h198l41 230h62l-41 -230h219l-10 -57h-219z" />
    <glyph glyph-name="u" unicode="u" horiz-adv-x="976" 
d="M356 -16q-112 0 -181 66t-69 181q0 35 7 72l106 606h62l-105 -598q-6 -37 -6 -71q0 -92 49 -144t154 -53q105 0 199 61t151 154l115 651h61l-160 -909h-61l29 168q-61 -80 -151 -132q-88 -52 -200 -52z" />
    <glyph glyph-name="v" unicode="v" horiz-adv-x="851" 
d="M346 0h-41l-188 909h63l162 -811l487 811h66z" />
    <glyph glyph-name="w" unicode="w" horiz-adv-x="1200" 
d="M700 909l78 -788l404 788h61l-465 -909h-43l-78 797l-405 -797h-43l-92 909h57l82 -788l399 788h45z" />
    <glyph glyph-name="x" unicode="x" horiz-adv-x="856" 
d="M881 909l-414 -450l246 -459h-64l-223 416l-379 -416h-74l426 465l-235 444h63l213 -401l367 401h74z" />
    <glyph glyph-name="y" unicode="y" horiz-adv-x="851" 
d="M137 -348h-65l227 377l-182 880h63l162 -807l485 807h68z" />
    <glyph glyph-name="z" unicode="z" horiz-adv-x="841" 
d="M-23 0v8l766 844h-550l10 57h659v-8l-764 -844h572l-8 -57h-685z" />
    <glyph glyph-name="braceleft" unicode="{" horiz-adv-x="675" 
d="M266 -172q-68 0 -104 45t-23 117l80 456q18 104 -78 105h-80l11 57h80q96 0 114 105l80 456q12 72 64 117t120 45h242l-10 -57h-242q-96 0 -114 -105l-80 -456q-16 -92 -101 -135q68 -48 54 -132l-80 -456q-18 -104 77 -105h242l-10 -57h-242z" />
    <glyph glyph-name="bar" unicode="|" horiz-adv-x="399" 
d="M68 -172l264 1503h59l-264 -1503h-59z" />
    <glyph glyph-name="braceright" unicode="}" horiz-adv-x="675" 
d="M446 1331q68 0 104 -45t23 -117l-79 -456q-18 -104 77 -105h80l-10 -57h-80q-96 0 -115 -105l-79 -456q-13 -72 -65 -117t-120 -45h-241l10 57h242q96 0 114 105l80 456q16 92 100 136q-67 47 -53 131l80 456q18 104 -78 105h-241l10 57h241z" />
    <glyph glyph-name="asciitilde" unicode="~" horiz-adv-x="813" 
d="M557 455q-45 -1 -86 23t-65 54q-65 78 -122 77q-56 -1 -92 -41t-49 -105h-65q16 96 72 152q56 57 124 57t115 -39t89 -78t90 -39t83 40t47 108h66q-16 -96 -70 -152t-137 -57z" />
    <glyph glyph-name="uni00A0" unicode="&#xa0;" horiz-adv-x="452" 
 />
    <glyph glyph-name="exclamdown" unicode="&#xa1;" horiz-adv-x="425" 
d="M403 1010q0 -23 -15 -39q-15 -17 -38 -17t-38 16t-15 40q0 23 15 39t38 16t38 -16t15 -39zM309 668l-145 -865h-66l162 865h49z" />
    <glyph glyph-name="cent" unicode="&#xa2;" horiz-adv-x="819" 
d="M94 381q0 233 127 388t314 171l32 195h58l-33 -191q147 -4 225 -84l-12 -67q-87 94 -239 94t-280 -138t-128 -368q0 -143 76 -233q77 -89 210 -89t244 76l-12 -69q-94 -63 -232 -64h-20l-29 -170h-57l31 176q-131 23 -203 121t-72 252z" />
    <glyph glyph-name="sterling" unicode="&#xa3;" horiz-adv-x="927" 
d="M746 1274q166 0 243 -60l-10 -63q-88 63 -219 63q-311 0 -375 -376l-35 -191h369l-10 -57h-369l-59 -342q-20 -115 -84 -187h624l-10 -61h-827l10 61h139q68 86 86 187l60 342h-193l10 57h193l33 189q38 210 148 324t276 114z" />
    <glyph glyph-name="yen" unicode="&#xa5;" horiz-adv-x="1030" 
d="M133 309l10 56h320l31 170h-320l8 55h322l-299 667h65l271 -610l487 610h76l-537 -667h322l-8 -55h-324l-31 -170h324l-10 -56h-322l-53 -309h-64l54 309h-322z" />
    <glyph glyph-name="section" unicode="&#xa7;" horiz-adv-x="905" 
d="M266 991q0 129 96 206t243 77t243 -84l-12 -72q-108 98 -230 98t-199 -58q-77 -60 -77 -165q0 -47 22 -80t82 -79l266 -209q49 -39 73 -62q67 -64 67 -148q0 -83 -56 -150t-143 -95q31 -51 31 -109q0 -129 -96 -205t-244 -77q-146 0 -242 84l12 71q109 -98 248 -98
q104 0 181 60t77 163q0 47 -22 80q-23 33 -82 80l-266 209q-49 40 -73 62t-45 62q-22 40 -22 85q0 85 56 151t143 95q-31 51 -31 108zM162 652q0 -60 28 -94t89 -81l333 -262q64 19 114 73t50 114t-27 93q-29 33 -90 80l-333 263q-64 -20 -114 -74q-50 -52 -50 -112z" />
    <glyph glyph-name="dieresis" unicode="&#xa8;" 
d="M582 1167q0 19 13 33t33 14t34 -13t14 -33t-13 -34t-33 -14t-34 14t-14 33zM348 1167q0 19 13 33t33 14t34 -13t14 -33t-13 -34t-33 -14t-34 14t-14 33z" />
    <glyph glyph-name="copyright" unicode="&#xa9;" horiz-adv-x="1454" 
d="M414 633q0 184 102 296q102 111 244 111t229 -67v-72q-92 80 -218 80t-210 -95t-84 -253t84 -253t210 -95t218 80v-72q-87 -68 -229 -68t-244 112t-102 296zM1358 629q0 254 -172 423t-420 169t-420 -169t-172 -423t172 -423t420 -169t420 169t172 423zM1411 629
q0 -279 -187 -462q-188 -183 -458 -183t-458 183q-187 183 -187 462t187 462q188 183 458 183t458 -183t187 -462z" />
    <glyph glyph-name="ordfeminine" unicode="&#xaa;" horiz-adv-x="565" 
d="M332 965q-66 0 -121 -38q-55 -37 -55 -99t43 -95t103 -33t109 26t72 67l15 79q-10 39 -56 66q-44 27 -110 27zM408 1272q96 0 143 -40t47 -112l-4 -43l-74 -420h-59l10 60q-70 -70 -165 -70t-151 47q-57 47 -57 129q0 83 71 139t179 56t162 -74l25 133l2 33
q0 106 -125 107q-96 0 -191 -56l10 62q81 49 177 49z" />
    <glyph glyph-name="guillemotleft" unicode="&#xab;" horiz-adv-x="579" 
d="M494 193h-62l-141 262l233 262h74l-240 -268zM272 193h-61l-141 262l233 262h74l-240 -268z" />
    <glyph glyph-name="registered" unicode="&#xae;" horiz-adv-x="864" 
d="M598 985q0 27 -19 45t-53 19h-102v-127h102q33 0 53 18q19 18 19 45zM424 868v-159h-55v393h151q61 0 97 -31t36 -82q1 -51 -27 -81t-73 -38l115 -161h-66l-110 159h-68zM817 899q0 137 -92 229t-225 92q-134 0 -226 -92t-92 -229t92 -229t226 -92t225 92q92 92 92 229z
M870 899q0 -159 -108 -267t-262 -108t-262 108t-109 268q0 160 109 266q108 108 262 108t262 -108t108 -267z" />
    <glyph glyph-name="macron" unicode="&#xaf;" 
d="M309 1110l10 55h396l-10 -55h-396z" />
    <glyph glyph-name="degree" unicode="&#xb0;" horiz-adv-x="618" 
d="M392 1217q-64 1 -114 -51q-48 -52 -48 -122t41 -111q42 -40 107 -40t114 51q49 52 49 122t-42 111q-43 40 -107 40zM391 1274q93 0 151 -57t58 -151t-64 -162t-157 -68q-92 0 -151 57q-58 57 -58 150t64 162q65 69 157 69z" />
    <glyph glyph-name="plusminus" unicode="&#xb1;" horiz-adv-x="1013" 
d="M102 238l11 59h727l-11 -59h-727zM567 979h60l-45 -252h333l-10 -59h-334l-45 -252h-59l45 252h-334l10 59h334z" />
    <glyph glyph-name="twosuperior" unicode="&#xb2;" horiz-adv-x="561" 
d="M72 588v4l260 256q40 40 82 78q42 39 67 88t25 92q0 106 -119 106q-98 0 -209 -94l12 68q94 84 209 84q80 0 123 -42t43 -114t-36 -124q-36 -53 -64 -82l-57 -57t-33 -34l-180 -174h311l-10 -55h-424z" />
    <glyph glyph-name="threesuperior" unicode="&#xb3;" horiz-adv-x="559" 
d="M600 1257v-4l-238 -266q72 -6 118 -53t46 -133t-74 -156t-178 -70q-106 0 -180 62l12 65q60 -72 154 -72t152 52q57 52 57 122t-47 107t-125 37h-29v4l224 250h-297l10 55h395z" />
    <glyph glyph-name="acute" unicode="&#xb4;" 
d="M438 1071h-69l219 260h69z" />
    <glyph glyph-name="paragraph" unicode="&#xb6;" horiz-adv-x="849" 
d="M324 -184l163 934q-139 0 -241 60t-102 162t70 168q126 119 364 117h59l-254 -1441h-59zM518 -184l254 1441h59l-253 -1441h-60z" />
    <glyph glyph-name="periodcentered" unicode="&#xb7;" horiz-adv-x="270" 
d="M80 532q0 23 15 39q15 17 38 17t38 -16t15 -40q0 -22 -15 -38t-38 -16t-38 15q-15 16 -15 39z" />
    <glyph glyph-name="cedilla" unicode="&#xb8;" 
d="M463 -348h-64l156 254h63z" />
    <glyph glyph-name="onesuperior" unicode="&#xb9;" horiz-adv-x="434" 
d="M410 1262l-119 -674h-60l105 598l-191 -88l13 63l215 101h37z" />
    <glyph glyph-name="ordmasculine" unicode="&#xba;" horiz-adv-x="614" 
d="M659 1016q0 -162 -86 -266q-85 -104 -203 -105q-118 0 -181 71q-62 71 -62 187q0 162 86 265q85 104 203 104t180 -70t63 -186zM188 903q0 -91 46 -147t137 -56t159 87t68 229q0 92 -46 147t-137 55t-159 -86q-68 -87 -68 -229z" />
    <glyph glyph-name="guillemotright" unicode="&#xbb;" horiz-adv-x="579" 
d="M106 717h62l141 -262l-233 -262h-74l240 268zM328 717h61l141 -262l-233 -262h-74l240 268z" />
    <glyph glyph-name="onequarter" unicode="&#xbc;" horiz-adv-x="1282" 
d="M479 1262l-119 -674h-59l107 600l-191 -90l10 63l215 101h37zM1200 1257l-1059 -1257h-65l1059 1257h65zM1012 672l-291 -457h233l29 166h57l-28 -166h123l-11 -53h-123l-26 -162h-57l26 162h-317l2 6l323 504h60z" />
    <glyph glyph-name="onehalf" unicode="&#xbd;" horiz-adv-x="1294" 
d="M678 0v4l260 256q40 40 83 79t67 89q24 49 24 90q0 106 -119 107q-98 0 -209 -95l13 68q94 84 209 84q80 0 122 -42t43 -106t-31 -120q-32 -57 -63 -89t-96 -96l-180 -174h311l-10 -55h-424zM479 1262l-119 -674h-59l107 600l-191 -90l10 63l215 101h37zM1200 1257
l-1059 -1257h-65l1059 1257h65z" />
    <glyph glyph-name="threequarters" unicode="&#xbe;" horiz-adv-x="1343" 
d="M1073 672l-291 -457h234l28 166h58l-29 -166h123l-10 -53h-123l-27 -162h-57l27 162h-318l2 6l324 504h59zM643 1257v-4l-237 -266q72 -6 118 -53t45 -133q1 -86 -73 -156t-180 -70t-179 62l13 65q59 -72 153 -72t152 52q57 52 57 122t-47 107t-125 37h-29v4l224 250
h-297l10 55h395zM1264 1257l-1059 -1257h-66l1059 1257h66z" />
    <glyph glyph-name="questiondown" unicode="&#xbf;" horiz-adv-x="847" 
d="M604 1010q0 -23 -15 -39q-15 -17 -38 -17t-38 16t-15 40q0 23 15 39t38 16t38 -16t15 -39zM327 -213q-124 0 -203 72t-79 195t67 208q36 47 62 76q27 29 82 80t92 88t62 72t39 88h59q-24 -106 -139 -217q-11 -13 -55 -53t-88 -82t-81 -110q-37 -69 -38 -157t61 -144
t178 -57q199 0 402 195l-15 -82q-177 -172 -406 -172z" />
    <glyph glyph-name="Agrave" unicode="&#xc0;" horiz-adv-x="1161" 
d="M811 1358h-61l-132 239h62zM745 1169l-399 -669h535zM731 1257h57l254 -1257h-61l-88 440h-584l-262 -440h-70z" />
    <glyph glyph-name="Aacute" unicode="&#xc1;" horiz-adv-x="1161" 
d="M809 1358h-72l217 239h72zM745 1169l-399 -669h535zM731 1257h57l254 -1257h-61l-88 440h-584l-262 -440h-70z" />
    <glyph glyph-name="Acircumflex" unicode="&#xc2;" horiz-adv-x="1161" 
d="M844 1604l143 -240h-59l-117 188l-182 -188h-68l230 240h53zM745 1169l-399 -669h535zM731 1257h57l254 -1257h-61l-88 440h-584l-262 -440h-70z" />
    <glyph glyph-name="Atilde" unicode="&#xc3;" horiz-adv-x="1161" 
d="M692 1503q-78 0 -102 -137h-53q16 90 58 142t100 52q57 0 113 -71q56 -72 93 -72q78 0 103 137h53q-37 -195 -162 -194q-43 0 -78 36t-65 72t-60 35zM745 1169l-399 -669h535zM731 1257h57l254 -1257h-61l-88 440h-584l-262 -440h-70z" />
    <glyph glyph-name="Adieresis" unicode="&#xc4;" horiz-adv-x="1161" 
d="M864 1454q0 20 14 34t33 13q19 0 33 -13q14 -14 14 -34t-13 -34t-33 -13q-20 -1 -34 13t-14 34zM631 1454q0 20 13 34q14 14 34 13q20 0 34 -13q14 -14 13 -34q0 -20 -13 -34q-14 -14 -34 -13q-20 0 -34 13q-13 14 -13 34zM745 1169l-399 -669h535zM731 1257h57
l254 -1257h-61l-88 440h-584l-262 -440h-70z" />
    <glyph glyph-name="Aring" unicode="&#xc5;" horiz-adv-x="1161" 
d="M684 1481q0 -45 30 -75t73 -30q44 0 77 32t33 77t-30 75q-29 30 -73 30t-77 -32t-33 -77zM788 1325q-66 0 -111 43q-44 43 -44 109q0 67 47 115q48 48 114 48t110 -43t44 -109t-47 -114q-47 -49 -113 -49zM745 1169l-399 -669h535zM731 1257h57l254 -1257h-61l-88 440
h-584l-262 -440h-70z" />
    <glyph glyph-name="AE" unicode="&#xc6;" horiz-adv-x="1771" 
d="M1047 1202l-582 -702h457zM1016 1257h784l-12 -61h-680l-90 -518h614l-10 -60h-614l-99 -557h680l-10 -61h-743l75 440h-495l-365 -440h-74z" />
    <glyph glyph-name="Ccedilla" unicode="&#xc7;" horiz-adv-x="1087" 
d="M430 -348h-63l155 254h64zM580 -16q-200 0 -335 154q-134 154 -134 399q0 305 182 521t469 216q207 0 344 -123l-12 -72q-133 133 -332 133q-252 0 -419 -196t-167 -479q0 -219 116 -355t302 -136t336 104l-15 -78q-135 -88 -335 -88z" />
    <glyph glyph-name="Egrave" unicode="&#xc8;" horiz-adv-x="1056" 
d="M770 1358h-61l-131 239h61zM322 1257h763l-12 -61h-700l-90 -518h635l-11 -60h-635l-98 -557h700l-10 -61h-764z" />
    <glyph glyph-name="Eacute" unicode="&#xc9;" horiz-adv-x="1056" 
d="M768 1358h-72l217 239h72zM322 1257h763l-12 -61h-700l-90 -518h635l-11 -60h-635l-98 -557h700l-10 -61h-764z" />
    <glyph glyph-name="Ecircumflex" unicode="&#xca;" horiz-adv-x="1056" 
d="M803 1604l143 -240h-59l-117 188l-182 -188h-68l230 240h53zM322 1257h763l-12 -61h-700l-90 -518h635l-11 -60h-635l-98 -557h700l-10 -61h-764z" />
    <glyph glyph-name="Edieresis" unicode="&#xcb;" horiz-adv-x="1056" 
d="M823 1454q-1 20 13 34t34 13q20 0 34 -13q14 -14 14 -34t-14 -34t-34 -13q-20 -1 -34 13t-13 34zM590 1454q0 20 13 34t33 13q20 0 34 -13q14 -14 14 -34t-13 -34t-33 -13q-20 0 -35 13q-13 14 -13 34zM322 1257h763l-12 -61h-700l-90 -518h635l-11 -60h-635l-98 -557
h700l-10 -61h-764z" />
    <glyph glyph-name="Igrave" unicode="&#xcc;" horiz-adv-x="403" 
d="M403 1358h-61l-131 239h61zM385 1257l-221 -1257h-64l222 1257h63z" />
    <glyph glyph-name="Iacute" unicode="&#xcd;" horiz-adv-x="403" 
d="M401 1358h-71l217 239h71zM385 1257l-221 -1257h-64l222 1257h63z" />
    <glyph glyph-name="Icircumflex" unicode="&#xce;" horiz-adv-x="403" 
d="M436 1604l144 -240h-60l-117 188l-182 -188h-67l229 240h53zM385 1257l-221 -1257h-64l222 1257h63z" />
    <glyph glyph-name="Idieresis" unicode="&#xcf;" horiz-adv-x="403" 
d="M457 1454q0 20 13 34q14 14 34 13q20 0 34 -13q14 -14 13 -34q0 -20 -13 -34q-14 -14 -34 -13q-20 0 -34 13q-13 14 -13 34zM223 1454q-1 20 13 34t34 13q20 0 34 -13q14 -14 13 -34q0 -20 -13 -34q-14 -14 -34 -13q-20 -1 -34 13t-13 34zM385 1257l-221 -1257h-64
l222 1257h63z" />
    <glyph glyph-name="Eth" unicode="&#xd0;" horiz-adv-x="1261" 
d="M500 61q274 1 462 191t187 487q0 211 -118 334t-333 123h-301l-90 -516h277l-11 -57h-276l-98 -562h301zM707 1257q239 0 373 -140t134 -378q0 -327 -212 -533t-517 -206h-360l108 623h-122l10 57h123l102 577h361z" />
    <glyph glyph-name="Ntilde" unicode="&#xd1;" horiz-adv-x="1251" 
d="M709 1503q-78 0 -103 -137h-53q16 90 58 142q43 52 101 52t113 -71q55 -72 93 -72q77 0 102 137h53q-37 -195 -162 -194q-43 0 -77 36t-65 72q-30 36 -60 35zM1233 1257l-221 -1257h-35l-610 1167l-205 -1167h-62l222 1257h61l590 -1124l198 1124h62z" />
    <glyph glyph-name="Ograve" unicode="&#xd2;" horiz-adv-x="1257" 
d="M821 1358h-61l-131 239h61zM574 -16q-198 0 -331 150q-134 150 -134 394q-1 184 71 352t219 282q147 112 345 112t332 -151t134 -394q0 -184 -72 -352t-218 -281q-148 -112 -346 -112zM575 45q177 0 308 101q262 202 262 602q0 194 -112 329t-289 135t-308 -101
q-130 -101 -196 -255t-66 -348t112 -328q112 -135 289 -135z" />
    <glyph glyph-name="Oacute" unicode="&#xd3;" horiz-adv-x="1257" 
d="M819 1358h-71l217 239h71zM574 -16q-198 0 -331 150q-134 150 -134 394q-1 184 71 352t219 282q147 112 345 112t332 -151t134 -394q0 -184 -72 -352t-218 -281q-148 -112 -346 -112zM575 45q177 0 308 101q262 202 262 602q0 194 -112 329t-289 135t-308 -101
q-130 -101 -196 -255t-66 -348t112 -328q112 -135 289 -135z" />
    <glyph glyph-name="Ocircumflex" unicode="&#xd4;" horiz-adv-x="1257" 
d="M854 1604l143 -240h-59l-117 188l-182 -188h-68l230 240h53zM574 -16q-198 0 -331 150q-134 150 -134 394q-1 184 71 352t219 282q147 112 345 112t332 -151t134 -394q0 -184 -72 -352t-218 -281q-148 -112 -346 -112zM575 45q177 0 308 101q262 202 262 602
q0 194 -112 329t-289 135t-308 -101q-130 -101 -196 -255t-66 -348t112 -328q112 -135 289 -135z" />
    <glyph glyph-name="Otilde" unicode="&#xd5;" horiz-adv-x="1257" 
d="M702 1503q-78 0 -102 -137h-53q16 90 58 142q41 52 99 52t114 -71q56 -72 93 -72q78 0 103 137h53q-37 -195 -162 -194q-43 0 -78 36t-65 72t-60 35zM574 -16q-198 0 -331 150q-134 150 -134 394q-1 184 71 352t219 282q147 112 345 112t332 -151t134 -394
q0 -184 -72 -352t-218 -281q-148 -112 -346 -112zM575 45q177 0 308 101q262 202 262 602q0 194 -112 329t-289 135t-308 -101q-130 -101 -196 -255t-66 -348t112 -328q112 -135 289 -135z" />
    <glyph glyph-name="Odieresis" unicode="&#xd6;" horiz-adv-x="1257" 
d="M874 1454q0 20 14 34t34 13q20 0 33 -13q13 -14 13 -34t-12 -34q-14 -14 -34 -13q-20 -1 -34 13t-14 34zM641 1454q0 20 13 34q14 14 34 13q20 0 34 -13q14 -14 13 -34q0 -20 -13 -34q-14 -14 -34 -13q-20 0 -34 13q-13 14 -13 34zM574 -16q-198 0 -331 150
q-134 150 -134 394q-1 184 71 352t219 282q147 112 345 112t332 -151t134 -394q0 -184 -72 -352t-218 -281q-148 -112 -346 -112zM575 45q177 0 308 101q262 202 262 602q0 194 -112 329t-289 135t-308 -101q-130 -101 -196 -255t-66 -348t112 -328q112 -135 289 -135z" />
    <glyph glyph-name="multiply" unicode="&#xd7;" horiz-adv-x="864" 
d="M420 596l-205 250l43 37l203 -250l289 250l34 -39l-288 -250l200 -250l-43 -37l-202 248l-289 -248l-35 39z" />
    <glyph glyph-name="Oslash" unicode="&#xd8;" horiz-adv-x="1277" 
d="M590 45q172 0 303 101t197 255t66 329t-79 304l-766 -876q107 -113 279 -113zM754 1212q-176 0 -308 -101t-196 -255q-66 -154 -66 -340t90 -313l768 878q-112 131 -288 131zM755 1274q198 0 328 -148l113 131l45 -36l-123 -140q102 -141 102 -339t-71 -365
q-72 -168 -219 -281q-148 -112 -338 -112t-320 129l-131 -150l-45 37l137 156q-115 152 -115 354t72 370t220 282q148 112 345 112z" />
    <glyph glyph-name="Ugrave" unicode="&#xd9;" horiz-adv-x="1236" 
d="M809 1358h-61l-132 239h62zM578 -16q-196 0 -316 104q-119 104 -119 295q0 45 11 111l135 763h63l-133 -753q-10 -66 -10 -111q0 -172 100 -261t271 -89t294 116t164 345l133 753h64l-135 -763q-46 -254 -186 -382t-336 -128z" />
    <glyph glyph-name="Uacute" unicode="&#xda;" horiz-adv-x="1236" 
d="M807 1358h-72l217 239h72zM578 -16q-196 0 -316 104q-119 104 -119 295q0 45 11 111l135 763h63l-133 -753q-10 -66 -10 -111q0 -172 100 -261t271 -89t294 116t164 345l133 753h64l-135 -763q-46 -254 -186 -382t-336 -128z" />
    <glyph glyph-name="Ucircumflex" unicode="&#xdb;" horiz-adv-x="1236" 
d="M842 1604l143 -240h-59l-117 188l-182 -188h-68l229 240h54zM578 -16q-196 0 -316 104q-119 104 -119 295q0 45 11 111l135 763h63l-133 -753q-10 -66 -10 -111q0 -172 100 -261t271 -89t294 116t164 345l133 753h64l-135 -763q-46 -254 -186 -382t-336 -128z" />
    <glyph glyph-name="Udieresis" unicode="&#xdc;" horiz-adv-x="1236" 
d="M862 1454q0 20 14 34t33 13q19 0 33 -13q14 -14 14 -34t-13 -34t-33 -13q-20 -1 -34 13t-14 34zM629 1454q0 20 13 34q14 14 34 13q20 0 34 -13q14 -14 13 -34q0 -20 -13 -34q-14 -14 -34 -13q-20 0 -34 13q-13 14 -13 34zM578 -16q-196 0 -316 104q-119 104 -119 295
q0 45 11 111l135 763h63l-133 -753q-10 -66 -10 -111q0 -172 100 -261t271 -89t294 116t164 345l133 753h64l-135 -763q-46 -254 -186 -382t-336 -128z" />
    <glyph glyph-name="Yacute" unicode="&#xdd;" horiz-adv-x="1062" 
d="M735 1358h-71l217 239h71zM565 608l535 649h74l-584 -708l-96 -549h-64l96 549l-333 708h67z" />
    <glyph glyph-name="Thorn" unicode="&#xde;" horiz-adv-x="1071" 
d="M604 362q174 0 276 88t101 248q0 111 -72 169t-211 59h-370l-101 -564h377zM596 301h-379l-53 -301h-64l222 1257h63l-47 -270h375q159 0 245 -74t86 -215q0 -190 -123 -294q-124 -103 -325 -103z" />
    <glyph glyph-name="germandbls" unicode="&#xdf;" horiz-adv-x="968" 
d="M526 1348q90 0 136 -25l-11 -61q-51 28 -121 28t-130 -56q-58 -56 -76 -161l-29 -164h690v-8l-440 -438q283 -109 282 -344q0 -158 -89 -271q-168 -213 -531 -215l10 58q311 0 464 184q83 99 83 229t-79 206t-230 130v9l403 403h-573l-150 -852h-61l190 1081
q20 125 96 196t166 71z" />
    <glyph glyph-name="agrave" unicode="&#xe0;" horiz-adv-x="872" 
d="M596 1071h-59l-129 260h59zM378 477q-106 0 -194 -62q-88 -63 -88 -163t69 -154t166 -55q97 0 176 43t114 109l24 131q-18 63 -90 107q-71 44 -177 44zM514 868q-150 0 -291 -86l13 70q125 74 261 74q135 0 203 -60t68 -164q0 -23 -6 -59l-113 -643h-61l16 98
q-45 -47 -120 -80t-152 -32q-129 0 -213 72t-84 193q0 120 104 202t246 82q95 0 167 -38t107 -85l41 237q4 33 5 47q-1 80 -51 126t-140 46z" />
    <glyph glyph-name="aacute" unicode="&#xe1;" horiz-adv-x="872" 
d="M592 1071h-70l219 260h70zM378 477q-106 0 -194 -62q-88 -63 -88 -163t69 -154t166 -55q97 0 176 43t114 109l24 131q-18 63 -90 107q-71 44 -177 44zM514 868q-150 0 -291 -86l13 70q125 74 261 74q135 0 203 -60t68 -164q0 -23 -6 -59l-113 -643h-61l16 98
q-45 -47 -120 -80t-152 -32q-129 0 -213 72t-84 193q0 120 104 202t246 82q95 0 167 -38t107 -85l41 237q4 33 5 47q-1 80 -51 126t-140 46z" />
    <glyph glyph-name="acircumflex" unicode="&#xe2;" horiz-adv-x="872" 
d="M614 1317l140 -260h-60l-110 211l-189 -211h-67l233 260h53zM378 477q-106 0 -194 -62q-88 -63 -88 -163t69 -154t166 -55q97 0 176 43t114 109l24 131q-18 63 -90 107q-71 44 -177 44zM514 868q-150 0 -291 -86l13 70q125 74 261 74q135 0 203 -60t68 -164q0 -23 -6 -59
l-113 -643h-61l16 98q-45 -47 -120 -80t-152 -32q-129 0 -213 72t-84 193q0 120 104 202t246 82q95 0 167 -38t107 -85l41 237q4 33 5 47q-1 80 -51 126t-140 46z" />
    <glyph glyph-name="atilde" unicode="&#xe3;" horiz-adv-x="872" 
d="M672 1073q-43 0 -78 36t-65 72t-60 36q-78 0 -102 -138h-54q17 91 59 143t90 52q78 0 124 -72t92 -72q77 1 102 138h54q-37 -195 -162 -195zM378 477q-106 0 -194 -62q-88 -63 -88 -163t69 -154t166 -55q97 0 176 43t114 109l24 131q-18 63 -90 107q-71 44 -177 44z
M514 868q-150 0 -291 -86l13 70q125 74 261 74q135 0 203 -60t68 -164q0 -23 -6 -59l-113 -643h-61l16 98q-45 -47 -120 -80t-152 -32q-129 0 -213 72t-84 193q0 120 104 202t246 82q95 0 167 -38t107 -85l41 237q4 33 5 47q-1 80 -51 126t-140 46z" />
    <glyph glyph-name="adieresis" unicode="&#xe4;" horiz-adv-x="872" 
d="M649 1167q-1 19 13 33t34 14t34 -13t13 -33q0 -20 -13 -34q-14 -14 -34 -14t-34 14t-13 33zM416 1167q0 19 13 33t33 14t34 -13t14 -33t-13 -34t-33 -14t-34 14t-14 33zM378 477q-106 0 -194 -62q-88 -63 -88 -163t69 -154t166 -55q97 0 176 43t114 109l24 131
q-18 63 -90 107q-71 44 -177 44zM514 868q-150 0 -291 -86l13 70q125 74 261 74q135 0 203 -60t68 -164q0 -23 -6 -59l-113 -643h-61l16 98q-45 -47 -120 -80t-152 -32q-129 0 -213 72t-84 193q0 120 104 202t246 82q95 0 167 -38t107 -85l41 237q4 33 5 47q-1 80 -51 126
t-140 46z" />
    <glyph glyph-name="aring" unicode="&#xe5;" horiz-adv-x="872" 
d="M741 1194q-1 -66 -47 -115t-112 -49t-112 43q-44 43 -44 109t47 114t113 50q66 0 111 -43q44 -43 44 -109zM581 1081q45 0 77 32t32 77t-30 75q-30 29 -74 29t-76 -32q-33 -32 -33 -76q0 -45 30 -75t74 -30zM378 477q-106 0 -194 -62q-88 -63 -88 -163t69 -154t166 -55
q97 0 176 43t114 109l24 131q-18 63 -90 107q-71 44 -177 44zM514 868q-150 0 -291 -86l13 70q125 74 261 74q135 0 203 -60t68 -164q0 -23 -6 -59l-113 -643h-61l16 98q-45 -47 -120 -80t-152 -32q-129 0 -213 72t-84 193q0 120 104 202t246 82q95 0 167 -38t107 -85
l41 237q4 33 5 47q-1 80 -51 126t-140 46z" />
    <glyph glyph-name="ae" unicode="&#xe6;" horiz-adv-x="1472" 
d="M1105 868q-131 0 -231 -100t-137 -252h604q6 39 7 78q0 118 -56 196t-187 78zM94 225q0 -82 54 -133t158 -51q102 0 193 70t142 174l31 176h-252q-142 -1 -234 -57t-92 -179zM418 516h264q25 158 25 180q-1 80 -51 126t-140 46q-150 0 -291 -86l13 70q125 74 256 74
q256 0 268 -215q53 96 147 155q94 60 223 60t203 -88t74 -248q0 -61 -12 -129h-670q-6 -47 -6 -94q0 -154 78 -241q79 -87 221 -87t264 92l-14 -74q-102 -73 -248 -73q-283 1 -344 260q-56 -111 -158 -185q-102 -73 -224 -73t-192 66t-69 173q0 141 106 216t277 75z" />
    <glyph glyph-name="ccedilla" unicode="&#xe7;" horiz-adv-x="819" 
d="M283 -348h-64l156 254h63zM419 -16q-151 0 -244 102t-93 276q0 250 141 407t344 157q160 0 238 -84l-12 -68q-88 94 -240 94t-280 -138t-128 -368q0 -143 77 -232t208 -89t248 80l-14 -74q-94 -63 -245 -63z" />
    <glyph glyph-name="egrave" unicode="&#xe8;" horiz-adv-x="901" 
d="M612 1071h-59l-129 260h59zM776 594q0 118 -56 196t-186 78t-232 -100t-138 -252h606q6 41 6 78zM446 39q144 0 267 92l-15 -74q-102 -73 -265 -73t-256 102t-93 281q0 135 50 260t159 212t253 87t218 -88t74 -248q-1 -61 -13 -129h-671q-6 -47 -7 -94q0 -154 78 -241
q77 -87 221 -87z" />
    <glyph glyph-name="eacute" unicode="&#xe9;" horiz-adv-x="901" 
d="M608 1071h-69l219 260h69zM776 594q0 118 -56 196t-186 78t-232 -100t-138 -252h606q6 41 6 78zM446 39q144 0 267 92l-15 -74q-102 -73 -265 -73t-256 102t-93 281q0 135 50 260t159 212t253 87t218 -88t74 -248q-1 -61 -13 -129h-671q-6 -47 -7 -94q0 -154 78 -241
q77 -87 221 -87z" />
    <glyph glyph-name="ecircumflex" unicode="&#xea;" horiz-adv-x="901" 
d="M641 1317l139 -260h-59l-111 211l-188 -211h-68l234 260h53zM776 594q0 118 -56 196t-186 78t-232 -100t-138 -252h606q6 41 6 78zM446 39q144 0 267 92l-15 -74q-102 -73 -265 -73t-256 102t-93 281q0 135 50 260t159 212t253 87t218 -88t74 -248q-1 -61 -13 -129h-671
q-6 -47 -7 -94q0 -154 78 -241q77 -87 221 -87z" />
    <glyph glyph-name="edieresis" unicode="&#xeb;" horiz-adv-x="901" 
d="M664 1167q0 19 13 33t33 14t34 -13t14 -33t-14 -34t-33 -14t-33 14t-14 33zM430 1167q0 19 13 33t33 14t34 -13t14 -33t-13 -34t-33 -14t-34 14t-14 33zM776 594q0 118 -56 196t-186 78t-232 -100t-138 -252h606q6 41 6 78zM446 39q144 0 267 92l-15 -74
q-102 -73 -265 -73t-256 102t-93 281q0 135 50 260t159 212t253 87t218 -88t74 -248q-1 -61 -13 -129h-671q-6 -47 -7 -94q0 -154 78 -241q77 -87 221 -87z" />
    <glyph glyph-name="igrave" unicode="&#xec;" horiz-adv-x="368" 
d="M328 1071h-60l-129 260h60zM295 909l-160 -909h-61l159 909h62z" />
    <glyph glyph-name="iacute" unicode="&#xed;" horiz-adv-x="368" 
d="M324 1071h-70l219 260h70zM295 909l-160 -909h-61l159 909h62z" />
    <glyph glyph-name="icircumflex" unicode="&#xee;" horiz-adv-x="368" 
d="M295 909l-160 -909h-61l159 909h62zM358 1317l99 -260h-58l-73 205l-148 -205h-65l192 260h53z" />
    <glyph glyph-name="idieresis" unicode="&#xef;" horiz-adv-x="368" 
d="M295 909l-160 -909h-61l159 909h62zM356 1167q0 19 14 33t33 14t33 -13t14 -33t-12 -34q-14 -14 -34 -14t-34 14t-14 33zM164 1167q0 19 13 33t33 14t34 -13t14 -33t-13 -34t-33 -14t-34 14t-14 33z" />
    <glyph glyph-name="eth" unicode="&#xf0;" horiz-adv-x="954" 
d="M424 41q164 0 274 138t109 364q0 149 -75 237t-202 88q-164 0 -274 -138t-109 -363q0 -150 75 -238t202 -88zM375 1331h76q90 -66 170 -155l170 57l16 -49l-152 -51q215 -268 215 -590q0 -246 -128 -403t-318 -156q-158 0 -249 104t-91 279q0 247 128 403t318 156
q76 0 144 -30t98 -91h4q-66 168 -180 309l-234 -78l-18 49l215 72q-84 90 -184 166v8z" />
    <glyph glyph-name="ntilde" unicode="&#xf1;" horiz-adv-x="980" 
d="M717 1073q-43 0 -78 36t-65 72t-60 36q-78 0 -102 -138h-54q16 91 58 143t91 52q78 0 124 -72t92 -72q77 1 102 138h54q-37 -195 -162 -195zM807 666q0 92 -51 146t-156 54t-199 -61t-151 -154l-115 -651h-61l159 909h62l-29 -168q60 80 150 132q90 53 202 53t183 -68
q70 -68 69 -182q0 -33 -6 -70l-106 -606h-62l105 598q6 37 6 68z" />
    <glyph glyph-name="ograve" unicode="&#xf2;" horiz-adv-x="954" 
d="M621 1071h-60l-129 260h60zM424 -16q-158 0 -249 104t-91 279q0 247 128 403t318 156q158 0 249 -104t91 -279q0 -247 -128 -403t-318 -156zM424 41q164 0 274 138t109 364q0 149 -75 237t-202 88q-164 0 -274 -138t-109 -363q0 -150 75 -238t202 -88z" />
    <glyph glyph-name="oacute" unicode="&#xf3;" horiz-adv-x="954" 
d="M616 1071h-69l219 260h70zM424 -16q-158 0 -249 104t-91 279q0 247 128 403t318 156q158 0 249 -104t91 -279q0 -247 -128 -403t-318 -156zM424 41q164 0 274 138t109 364q0 149 -75 237t-202 88q-164 0 -274 -138t-109 -363q0 -150 75 -238t202 -88z" />
    <glyph glyph-name="ocircumflex" unicode="&#xf4;" horiz-adv-x="954" 
d="M649 1317l139 -260h-59l-111 211l-188 -211h-68l234 260h53zM424 -16q-158 0 -249 104t-91 279q0 247 128 403t318 156q158 0 249 -104t91 -279q0 -247 -128 -403t-318 -156zM424 41q164 0 274 138t109 364q0 149 -75 237t-202 88q-164 0 -274 -138t-109 -363
q0 -150 75 -238t202 -88z" />
    <glyph glyph-name="otilde" unicode="&#xf5;" horiz-adv-x="954" 
d="M702 1073q-44 0 -78 36t-64 72t-60 36q-78 0 -103 -138h-53q16 91 58 143t100 52t114 -72q55 -72 93 -72q77 1 102 138h53q-37 -195 -162 -195zM424 -16q-158 0 -249 104t-91 279q0 247 128 403t318 156q158 0 249 -104t91 -279q0 -247 -128 -403t-318 -156zM424 41
q164 0 274 138t109 364q0 149 -75 237t-202 88q-164 0 -274 -138t-109 -363q0 -150 75 -238t202 -88z" />
    <glyph glyph-name="odieresis" unicode="&#xf6;" horiz-adv-x="954" 
d="M672 1167q0 19 13 33t33 14t34 -13t14 -33t-13 -34t-33 -14t-34 14t-14 33zM438 1167q0 19 14 33t33 14t33 -13t14 -33t-13 -34t-33 -14t-34 14t-14 33zM424 -16q-158 0 -249 104t-91 279q0 247 128 403t318 156q158 0 249 -104t91 -279q0 -247 -128 -403t-318 -156z
M424 41q164 0 274 138t109 364q0 149 -75 237t-202 88q-164 0 -274 -138t-109 -363q0 -150 75 -238t202 -88z" />
    <glyph glyph-name="divide" unicode="&#xf7;" horiz-adv-x="1013" 
d="M424 299q0 23 15 39t38 16t38 -16t15 -39t-15 -39t-38 -16t-38 16t-15 39zM526 901q0 23 16 39t38 16q24 0 38 -16t14 -39t-14 -39q-16 -16 -38 -16t-38 16t-16 39zM162 569l10 60h727l-10 -60h-727z" />
    <glyph glyph-name="oslash" unicode="&#xf8;" horiz-adv-x="974" 
d="M434 41q164 0 274 138t109 364q0 121 -45 198l-526 -630q69 -70 188 -70zM158 367q0 -135 53 -215l530 634q-76 82 -200 82q-163 0 -273 -138t-110 -363zM94 367q0 247 128 403t319 156q147 0 237 -95l105 125l43 -30l-113 -135q68 -102 68 -248q0 -246 -128 -403
t-319 -156q-139 0 -227 82l-101 -121l-43 30l107 129q-76 100 -76 263z" />
    <glyph glyph-name="ugrave" unicode="&#xf9;" horiz-adv-x="976" 
d="M618 1071h-59l-129 260h59zM356 -16q-112 0 -181 66t-69 181q0 35 7 72l106 606h62l-105 -598q-6 -37 -6 -71q0 -92 49 -144t154 -53q105 0 199 61t151 154l115 651h61l-160 -909h-61l29 168q-61 -80 -151 -132q-88 -52 -200 -52z" />
    <glyph glyph-name="uacute" unicode="&#xfa;" horiz-adv-x="976" 
d="M614 1071h-69l219 260h70zM356 -16q-112 0 -181 66t-69 181q0 35 7 72l106 606h62l-105 -598q-6 -37 -6 -71q0 -92 49 -144t154 -53q105 0 199 61t151 154l115 651h61l-160 -909h-61l29 168q-61 -80 -151 -132q-88 -52 -200 -52z" />
    <glyph glyph-name="ucircumflex" unicode="&#xfb;" horiz-adv-x="976" 
d="M647 1317l139 -260h-59l-111 211l-188 -211h-68l234 260h53zM356 -16q-112 0 -181 66t-69 181q0 35 7 72l106 606h62l-105 -598q-6 -37 -6 -71q0 -92 49 -144t154 -53q105 0 199 61t151 154l115 651h61l-160 -909h-61l29 168q-61 -80 -151 -132q-88 -52 -200 -52z" />
    <glyph glyph-name="udieresis" unicode="&#xfc;" horiz-adv-x="976" 
d="M672 1167q0 19 13 33t33 14t34 -13t14 -33t-13 -34t-33 -14t-34 14t-14 33zM438 1167q0 19 14 33t33 14t33 -13t14 -33t-13 -34t-33 -14t-34 14t-14 33zM356 -16q-112 0 -181 66t-69 181q0 35 7 72l106 606h62l-105 -598q-6 -37 -6 -71q0 -92 49 -144t154 -53
q105 0 199 61t151 154l115 651h61l-160 -909h-61l29 168q-61 -80 -151 -132q-88 -52 -200 -52z" />
    <glyph glyph-name="yacute" unicode="&#xfd;" horiz-adv-x="851" 
d="M553 1071h-70l219 260h70zM137 -348h-65l227 377l-182 880h63l162 -807l485 807h68z" />
    <glyph glyph-name="thorn" unicode="&#xfe;" horiz-adv-x="993" 
d="M442 43q129 0 225 81q179 153 179 429q0 145 -66 229t-194 84q-191 1 -334 -202l-74 -418q72 -203 264 -203zM576 926q172 0 252 -104t81 -269q0 -225 -129 -397t-338 -172q-100 0 -173 52q-72 52 -105 126l-90 -510h-62l295 1679h62l-103 -579q138 174 310 174z" />
    <glyph glyph-name="ydieresis" unicode="&#xff;" horiz-adv-x="851" 
d="M610 1167q0 19 14 33t33 14t33 -13t14 -33t-12 -34q-14 -14 -34 -14t-34 14t-14 33zM377 1167q0 19 13 33q14 14 34 14t34 -13t13 -33q0 -20 -13 -34q-14 -14 -34 -14t-34 14t-13 33zM137 -348h-65l227 377l-182 880h63l162 -807l485 807h68z" />
    <glyph glyph-name="Amacron" unicode="&#x100;" horiz-adv-x="1161" 
d="M573 1372l9 55h395l-8 -55h-396zM745 1169l-399 -669h535zM731 1257h57l254 -1257h-61l-88 440h-584l-262 -440h-70z" />
    <glyph glyph-name="amacron" unicode="&#x101;" horiz-adv-x="872" 
d="M371 1110l10 55h395l-10 -55h-395zM378 477q-106 0 -194 -62q-88 -63 -88 -163t69 -154t166 -55q97 0 176 43t114 109l24 131q-18 63 -90 107q-71 44 -177 44zM514 868q-150 0 -291 -86l13 70q125 74 261 74q135 0 203 -60t68 -164q0 -23 -6 -59l-113 -643h-61l16 98
q-45 -47 -120 -80t-152 -32q-129 0 -213 72t-84 193q0 120 104 202t246 82q95 0 167 -38t107 -85l41 237q4 33 5 47q-1 80 -51 126t-140 46z" />
    <glyph glyph-name="Abreve" unicode="&#x102;" horiz-adv-x="1161" 
d="M786 1358q-82 0 -129 62t-26 171h55q-16 -86 14 -134t88 -48q59 0 106 48q46 48 62 134h56q-20 -111 -82 -172t-144 -61zM745 1169l-399 -669h535zM731 1257h57l254 -1257h-61l-88 440h-584l-262 -440h-70z" />
    <glyph glyph-name="abreve" unicode="&#x103;" horiz-adv-x="872" 
d="M561 1044q-82 0 -129 62t-26 172h55q-17 -86 13 -134t89 -48t106 48q46 48 62 134h55q-20 -110 -82 -172t-143 -62zM378 477q-106 0 -194 -62q-88 -63 -88 -163t69 -154t166 -55q97 0 176 43t114 109l24 131q-18 63 -90 107q-71 44 -177 44zM514 868q-150 0 -291 -86
l13 70q125 74 261 74q135 0 203 -60t68 -164q0 -23 -6 -59l-113 -643h-61l16 98q-45 -47 -120 -80t-152 -32q-129 0 -213 72t-84 193q0 120 104 202t246 82q95 0 167 -38t107 -85l41 237q4 33 5 47q-1 80 -51 126t-140 46z" />
    <glyph glyph-name="Aogonek" unicode="&#x104;" horiz-adv-x="1161" 
d="M745 1169l-399 -669h535zM893 -275q0 -42 39 -42t84 28l-10 -51q-39 -27 -79 -27t-65 23t-24 58t7 55q7 20 11 37q5 17 34 60q29 44 38 55q8 11 27 39t28 40h-2l-88 440h-584l-262 -440h-70l754 1257h57l254 -1257q-94 -133 -122 -183t-27 -92z" />
    <glyph glyph-name="aogonek" unicode="&#x105;" horiz-adv-x="872" 
d="M35 251q0 120 104 202t246 82q94 0 167 -38t107 -85l41 237q4 33 5 47q-1 80 -51 126t-140 46q-150 0 -291 -86l13 70q125 74 261 74q135 0 203 -60t68 -164q0 -23 -6 -59l-113 -643q-94 -133 -122 -183q-27 -50 -27 -92t39 -42t84 28l-11 -51q-39 -27 -79 -27
q-41 0 -65 23t-24 62t22 90t69 113q47 63 57 79h-4l16 98q-45 -47 -120 -80t-152 -32q-129 0 -213 72t-84 193zM378 477q-106 0 -194 -62q-88 -63 -88 -163t69 -154t166 -55q97 0 176 43t114 109l24 131q-18 63 -90 107q-71 44 -177 44z" />
    <glyph glyph-name="Cacute" unicode="&#x106;" horiz-adv-x="1087" 
d="M838 1358h-72l217 239h72zM580 -16q-200 0 -335 154q-134 154 -134 399q0 305 182 521t469 216q207 0 344 -123l-12 -72q-133 133 -332 133q-252 0 -419 -196t-167 -479q0 -219 116 -355t302 -136t336 104l-15 -78q-135 -88 -335 -88z" />
    <glyph glyph-name="cacute" unicode="&#x107;" horiz-adv-x="819" 
d="M637 1071h-70l219 260h70zM419 -16q-151 0 -244 102t-93 276q0 250 141 407t344 157q160 0 238 -84l-12 -68q-88 94 -240 94t-280 -138t-128 -368q0 -143 77 -232t208 -89t248 80l-14 -74q-94 -63 -245 -63z" />
    <glyph glyph-name="Ccircumflex" unicode="&#x108;" horiz-adv-x="1087" 
d="M870 1604l144 -240h-60l-116 188l-183 -188h-67l229 240h53zM580 -16q-200 0 -335 154q-134 154 -134 399q0 305 182 521t469 216q207 0 344 -123l-12 -72q-133 133 -332 133q-252 0 -419 -196t-167 -479q0 -219 116 -355t302 -136t336 104l-15 -78q-135 -88 -335 -88z
" />
    <glyph glyph-name="ccircumflex" unicode="&#x109;" horiz-adv-x="819" 
d="M670 1317l139 -260h-59l-111 211l-188 -211h-68l233 260h54zM419 -16q-151 0 -244 102t-93 276q0 250 141 407t344 157q160 0 238 -84l-12 -68q-88 94 -240 94t-280 -138t-128 -368q0 -143 77 -232t208 -89t248 80l-14 -74q-94 -63 -245 -63z" />
    <glyph glyph-name="Cdotaccent" unicode="&#x10a;" horiz-adv-x="1087" 
d="M870 1452q0 -20 -13 -34t-33 -15q-20 0 -34 14q-14 15 -14 35t14 34t33 15q20 0 34 -14q13 -15 13 -35zM580 -16q-200 0 -335 154q-134 154 -134 399q0 305 182 521t469 216q207 0 344 -123l-12 -72q-133 133 -332 133q-252 0 -419 -196t-167 -479q0 -219 116 -355
t302 -136t336 104l-15 -78q-135 -88 -335 -88z" />
    <glyph glyph-name="cdotaccent" unicode="&#x10b;" horiz-adv-x="819" 
d="M674 1186q0 -20 -14 -34t-33 -15q-20 0 -34 14q-13 15 -13 35t13 34t33 15q20 -1 34 -15t14 -34zM419 -16q-151 0 -244 102t-93 276q0 250 141 407t344 157q160 0 238 -84l-12 -68q-88 94 -240 94t-280 -138t-128 -368q0 -143 77 -232t208 -89t248 80l-14 -74
q-94 -63 -245 -63z" />
    <glyph glyph-name="Ccaron" unicode="&#x10c;" horiz-adv-x="1087" 
d="M776 1343l-143 240h59l117 -188l182 188h68l-230 -240h-53zM580 -16q-200 0 -335 154q-134 154 -134 399q0 305 182 521t469 216q207 0 344 -123l-12 -72q-133 133 -332 133q-252 0 -419 -196t-167 -479q0 -219 116 -355t302 -136t336 104l-15 -78q-135 -88 -335 -88z
" />
    <glyph glyph-name="ccaron" unicode="&#x10d;" horiz-adv-x="819" 
d="M582 1061l-140 260h60l110 -211l189 211h67l-233 -260h-53zM419 -16q-151 0 -244 102t-93 276q0 250 141 407t344 157q160 0 238 -84l-12 -68q-88 94 -240 94t-280 -138t-128 -368q0 -143 77 -232t208 -89t248 80l-14 -74q-94 -63 -245 -63z" />
    <glyph glyph-name="Dcaron" unicode="&#x10e;" horiz-adv-x="1236" 
d="M700 1343l-143 240h59l117 -188l182 188h68l-229 -240h-54zM682 1257q240 0 374 -140t134 -378q0 -327 -212 -533t-517 -206h-361l222 1257h360zM475 61q273 1 461 191t188 487q0 211 -117 334q-118 123 -333 123h-301l-199 -1135h301z" />
    <glyph glyph-name="dcaron" unicode="&#x10f;" horiz-adv-x="993" 
d="M1094 1010h-58l164 321h57zM147 345q0 -134 66 -218t195 -84q190 0 333 203l74 418q-72 203 -264 202q-129 0 -224 -81t-137 -193t-43 -247zM417 -16q-171 0 -252 103t-81 269q0 226 129 398t338 172q101 0 173 -52t105 -126l103 583h61l-233 -1331h-62l29 158
q-139 -174 -310 -174z" />
    <glyph glyph-name="Dcroat" unicode="&#x110;" horiz-adv-x="1261" 
d="M500 61q274 1 462 191t187 487q0 211 -118 334t-333 123h-301l-90 -516h277l-11 -57h-276l-98 -562h301zM707 1257q239 0 373 -140t134 -378q0 -327 -212 -533t-517 -206h-360l108 623h-122l10 57h123l102 577h361z" />
    <glyph glyph-name="dcroat" unicode="&#x111;" horiz-adv-x="993" 
d="M147 345q0 -134 66 -218t195 -84q190 0 333 203l74 418q-72 203 -264 202q-129 0 -224 -81t-137 -193t-43 -247zM417 -16q-171 0 -252 103t-81 269q0 226 129 398t338 172q100 0 173 -52t105 -126l58 331h-248l10 51h248l35 201h61l-35 -201h103l-10 -51h-103l-188 -1079
h-62l29 158q-139 -174 -310 -174z" />
    <glyph glyph-name="Emacron" unicode="&#x112;" horiz-adv-x="1056" 
d="M543 1372l8 55h395l-8 -55h-395zM322 1257h763l-12 -61h-700l-90 -518h635l-11 -60h-635l-98 -557h700l-10 -61h-764z" />
    <glyph glyph-name="emacron" unicode="&#x113;" horiz-adv-x="901" 
d="M387 1110l10 55h396l-11 -55h-395zM776 594q0 118 -56 196t-186 78t-232 -100t-138 -252h606q6 41 6 78zM446 39q144 0 267 92l-15 -74q-102 -73 -265 -73t-256 102t-93 281q0 135 50 260t159 212t253 87t218 -88t74 -248q-1 -61 -13 -129h-671q-6 -47 -7 -94
q0 -154 78 -241q77 -87 221 -87z" />
    <glyph glyph-name="Ebreve" unicode="&#x114;" horiz-adv-x="1056" 
d="M745 1358q-82 0 -129 62t-26 171h55q-17 -86 13 -134t90 -48t105 48q46 48 62 134h56q-20 -111 -82 -172t-144 -61zM322 1257h763l-12 -61h-700l-90 -518h635l-11 -60h-635l-98 -557h700l-10 -61h-764z" />
    <glyph glyph-name="ebreve" unicode="&#x115;" horiz-adv-x="901" 
d="M577 1044q-83 0 -129 62t-26 172h55q-17 -86 13 -134t90 -48t105 48q46 48 63 134h55q-20 -110 -82 -172t-144 -62zM776 594q0 118 -56 196t-186 78t-232 -100t-138 -252h606q6 41 6 78zM446 39q144 0 267 92l-15 -74q-102 -73 -265 -73t-256 102t-93 281q0 135 50 260
t159 212t253 87t218 -88t74 -248q-1 -61 -13 -129h-671q-6 -47 -7 -94q0 -154 78 -241q77 -87 221 -87z" />
    <glyph glyph-name="Edotaccent" unicode="&#x116;" horiz-adv-x="1056" 
d="M801 1452q1 -20 -13 -34t-34 -15q-20 0 -34 14q-13 15 -13 35t13 34q14 14 34 15q20 -1 34 -15t13 -34zM322 1257h763l-12 -61h-700l-90 -518h635l-11 -60h-635l-98 -557h700l-10 -61h-764z" />
    <glyph glyph-name="edotaccent" unicode="&#x117;" horiz-adv-x="901" 
d="M645 1186q0 -20 -13 -34q-14 -14 -34 -15q-20 0 -34 14q-13 15 -13 35t13 34q14 14 34 15q20 0 34 -14q13 -15 13 -35zM776 594q0 118 -56 196t-186 78t-232 -100t-138 -252h606q6 41 6 78zM446 39q144 0 267 92l-15 -74q-102 -73 -265 -73t-256 102t-93 281
q0 135 50 260t159 212t253 87t218 -88t74 -248q-1 -61 -13 -129h-671q-6 -47 -7 -94q0 -154 78 -241q77 -87 221 -87z" />
    <glyph glyph-name="Eogonek" unicode="&#x118;" horiz-adv-x="1056" 
d="M639 -275q0 -42 39 -42t84 28l-10 -51q-39 -27 -79 -27t-65 23t-24 58t7 55q7 21 11 37t34 60q29 44 38 55q8 11 27 39t28 40h-629l222 1257h763l-12 -61h-700l-90 -518h635l-11 -60h-635l-98 -557h700l-10 -61h-78q-92 -131 -120 -182t-27 -93z" />
    <glyph glyph-name="eogonek" unicode="&#x119;" horiz-adv-x="901" 
d="M776 594q0 118 -56 196t-186 78t-232 -100t-138 -252h606q6 41 6 78zM446 39q144 0 267 92l-15 -74q-51 -33 -71 -53q-154 -147 -154 -280q0 -41 39 -41t84 28l-10 -51q-39 -27 -79 -27t-65 23t-24 68q0 127 143 274q-49 -14 -123 -14q-168 0 -261 102t-93 281
q0 135 50 260t159 212t253 87t218 -88t74 -248q-1 -61 -13 -129h-671q-6 -47 -7 -94q0 -154 78 -241q77 -87 221 -87z" />
    <glyph glyph-name="Ecaron" unicode="&#x11a;" horiz-adv-x="1056" 
d="M709 1343l-144 240h60l116 -188l183 188h67l-229 -240h-53zM322 1257h763l-12 -61h-700l-90 -518h635l-11 -60h-635l-98 -557h700l-10 -61h-764z" />
    <glyph glyph-name="ecaron" unicode="&#x11b;" horiz-adv-x="901" 
d="M551 1061l-139 260h59l111 -211l188 211h68l-234 -260h-53zM776 594q0 118 -56 196t-186 78t-232 -100t-138 -252h606q6 41 6 78zM446 39q144 0 267 92l-15 -74q-102 -73 -265 -73t-256 102t-93 281q0 135 50 260t159 212t253 87t218 -88t74 -248q-1 -61 -13 -129h-671
q-6 -47 -7 -94q0 -154 78 -241q77 -87 221 -87z" />
    <glyph glyph-name="Gcircumflex" unicode="&#x11c;" horiz-adv-x="1191" 
d="M883 1604l143 -240h-59l-117 188l-182 -188h-68l229 240h54zM622 -16q-236 0 -373 152q-138 152 -138 401q0 305 182 521t469 216q229 0 385 -139l-12 -72q-150 150 -373 149q-252 0 -419 -196t-167 -479q0 -221 119 -357t321 -135q202 0 349 113l73 411h-346l10 56h406
l-86 -492q-164 -149 -400 -149z" />
    <glyph glyph-name="gcircumflex" unicode="&#x11d;" horiz-adv-x="980" 
d="M680 1317l139 -260h-59l-111 211l-188 -211h-68l234 260h53zM147 360q0 -130 70 -214t199 -83q179 0 329 205l70 396q-74 203 -264 202q-129 0 -224 -79t-137 -189q-42 -108 -43 -238zM422 4q-170 0 -254 101t-84 264q0 219 129 388t338 169q100 0 173 -52t105 -126
l29 161h62l-150 -848q-37 -211 -155 -319t-289 -109q-88 0 -168 29t-121 70l12 69q99 -109 263 -109q331 1 397 363l22 121q-139 -172 -309 -172z" />
    <glyph glyph-name="Gbreve" unicode="&#x11e;" horiz-adv-x="1191" 
d="M825 1358q-82 0 -129 62t-26 171h55q-17 -86 13 -134t89 -48t106 48q46 48 62 134h56q-20 -111 -82 -172t-144 -61zM622 -16q-236 0 -373 152q-138 152 -138 401q0 305 182 521t469 216q229 0 385 -139l-12 -72q-150 150 -373 149q-252 0 -419 -196t-167 -479
q0 -221 119 -357t321 -135q202 0 349 113l73 411h-346l10 56h406l-86 -492q-164 -149 -400 -149z" />
    <glyph glyph-name="gbreve" unicode="&#x11f;" horiz-adv-x="980" 
d="M616 1044q-82 0 -129 62t-26 172h55q-16 -86 14 -134t88 -48q59 0 106 48q46 48 62 134h56q-20 -110 -82 -172t-144 -62zM147 360q0 -130 70 -214t199 -83q179 0 329 205l70 396q-74 203 -264 202q-129 0 -224 -79t-137 -189q-42 -108 -43 -238zM422 4q-170 0 -254 101
t-84 264q0 219 129 388t338 169q100 0 173 -52t105 -126l29 161h62l-150 -848q-37 -211 -155 -319t-289 -109q-88 0 -168 29t-121 70l12 69q99 -109 263 -109q331 1 397 363l22 121q-139 -172 -309 -172z" />
    <glyph glyph-name="Gdotaccent" unicode="&#x120;" horiz-adv-x="1191" 
d="M883 1452q1 -20 -13 -34t-34 -15q-20 0 -34 14q-14 15 -14 35t14 34t34 15q20 -1 34 -15t13 -34zM622 -16q-236 0 -373 152q-138 152 -138 401q0 305 182 521t469 216q229 0 385 -139l-12 -72q-150 150 -373 149q-252 0 -419 -196t-167 -479q0 -221 119 -357t321 -135
q202 0 349 113l73 411h-346l10 56h406l-86 -492q-164 -149 -400 -149z" />
    <glyph glyph-name="gdotaccent" unicode="&#x121;" horiz-adv-x="980" 
d="M684 1186q0 -20 -13 -34t-33 -15q-20 0 -35 14q-13 15 -13 35t13 34t33 15q20 0 35 -14q13 -15 13 -35zM147 360q0 -130 70 -214t199 -83q179 0 329 205l70 396q-74 203 -264 202q-129 0 -224 -79t-137 -189q-42 -108 -43 -238zM422 4q-170 0 -254 101t-84 264
q0 219 129 388t338 169q100 0 173 -52t105 -126l29 161h62l-150 -848q-37 -211 -155 -319t-289 -109q-88 0 -168 29t-121 70l12 69q99 -109 263 -109q331 1 397 363l22 121q-139 -172 -309 -172z" />
    <glyph glyph-name="Gcommaaccent" unicode="&#x122;" horiz-adv-x="1191" 
d="M500 -154q0 23 15 39q15 17 38 17t38 -16t15 -42q0 -25 -22 -57l-92 -135h-52l99 145q-39 6 -39 49zM622 -16q-236 0 -373 152q-138 152 -138 401q0 305 182 521t469 216q229 0 385 -139l-12 -72q-150 150 -373 149q-252 0 -419 -196t-167 -479q0 -221 119 -357t321 -135
q202 0 349 113l73 411h-346l10 56h406l-86 -492q-164 -149 -400 -149z" />
    <glyph glyph-name="gcommaaccent" unicode="&#x123;" horiz-adv-x="980" 
d="M666 1137q0 -23 -16 -39t-38 -16q-23 0 -38 16t-15 41t23 57l92 135h51l-98 -145q39 -6 39 -49zM147 360q0 -130 70 -214t199 -83q179 0 329 205l70 396q-74 203 -264 202q-129 0 -224 -79t-137 -189q-42 -108 -43 -238zM422 4q-170 0 -254 101t-84 264q0 219 129 388
t338 169q100 0 173 -52t105 -126l29 161h62l-150 -848q-37 -211 -155 -319t-289 -109q-88 0 -168 29t-121 70l12 69q99 -109 263 -109q331 1 397 363l22 121q-139 -172 -309 -172z" />
    <glyph glyph-name="Hcircumflex" unicode="&#x124;" horiz-adv-x="1327" 
d="M899 1604l143 -240h-59l-117 188l-182 -188h-68l230 240h53zM1245 1257h64l-222 -1257h-63l109 618h-861l-108 -618h-64l222 1257h63l-102 -577h860z" />
    <glyph glyph-name="hcircumflex" unicode="&#x125;" horiz-adv-x="980" 
d="M659 1624l144 -240h-60l-116 189l-183 -189h-67l229 240h53zM618 926q112 0 183 -68q70 -68 69 -182q0 -33 -6 -70l-106 -606h-62l105 598q6 37 6 68q0 92 -51 146t-156 54t-199 -61t-151 -154l-115 -651h-61l233 1331h62l-105 -590q62 81 152 133t202 52z" />
    <glyph glyph-name="Hbar" unicode="&#x126;" horiz-adv-x="1376" 
d="M307 680h860l41 229h-860zM1270 1257h63l-51 -290h125l-10 -58h-125l-160 -909h-63l108 618h-860l-109 -618h-63l160 909h-123l10 58h123l51 290h64l-52 -290h861z" />
    <glyph glyph-name="hbar" unicode="&#x127;" horiz-adv-x="980" 
d="M807 666q0 92 -51 146t-156 54t-199 -61t-151 -154l-115 -651h-61l188 1079h-102l10 51h102l35 201h62l-37 -201h250l-11 -51h-247l-60 -338q62 80 152 132q90 53 202 53t183 -68q70 -68 69 -182q0 -33 -6 -70l-106 -606h-62l105 598q6 37 6 68z" />
    <glyph glyph-name="Itilde" unicode="&#x128;" horiz-adv-x="403" 
d="M285 1503q-78 0 -103 -137h-53q16 90 58 142q43 52 95 52t87 -35q35 -36 63 -72t62 -36q77 0 102 137h53q-37 -195 -162 -194q-43 0 -77 36t-65 72q-30 36 -60 35zM385 1257l-221 -1257h-64l222 1257h63z" />
    <glyph glyph-name="itilde" unicode="&#x129;" horiz-adv-x="368" 
d="M295 909l-160 -909h-61l159 909h62zM385 1073q-29 0 -51 23q-22 24 -32 50q-30 72 -60 71q-51 0 -76 -138h-53q16 87 51 141t72 54q61 0 90 -72q30 -72 61 -72q51 1 76 138h53q-37 -195 -131 -195z" />
    <glyph glyph-name="Imacron" unicode="&#x12a;" horiz-adv-x="403" 
d="M176 1372l8 55h396l-9 -55h-395zM385 1257l-221 -1257h-64l222 1257h63z" />
    <glyph glyph-name="imacron" unicode="&#x12b;" horiz-adv-x="368" 
d="M295 909l-160 -909h-61l159 909h62zM150 1110l10 55h293l-11 -55h-292z" />
    <glyph glyph-name="Ibreve" unicode="&#x12c;" horiz-adv-x="403" 
d="M379 1358q-82 0 -129 62t-27 171h56q-17 -86 13 -134t89 -48t105 48t63 134h55q-20 -111 -82 -172t-143 -61zM385 1257l-221 -1257h-64l222 1257h63z" />
    <glyph glyph-name="ibreve" unicode="&#x12d;" horiz-adv-x="368" 
d="M295 909l-160 -909h-61l159 909h62zM290 1044q-75 0 -113 62t-17 172h53q-17 -86 7 -134t75 -48t91 48t56 134h54q-20 -110 -76 -172t-130 -62z" />
    <glyph glyph-name="Iogonek" unicode="&#x12e;" horiz-adv-x="403" 
d="M14 -275q0 -42 39 -42t84 28l-10 -51q-39 -27 -79 -27t-64 23q-24 24 -25 58q0 34 7 54t10 32q4 10 14 28t16 28q14 25 43 65q28 39 55 79h-4l222 1257h63l-221 -1257q-94 -133 -122 -183t-28 -92z" />
    <glyph glyph-name="iogonek" unicode="&#x12f;" horiz-adv-x="368" 
d="M25 -317q39 0 84 28l-11 -51q-39 -27 -79 -27q-41 0 -65 23t-24 62t22 90t69 113q47 63 57 79h-4l159 909h62l-160 -909q-94 -133 -122 -183q-27 -50 -27 -92t39 -42zM358 1186q0 -20 -13 -34t-33 -15q-20 0 -34 14q-14 15 -14 35t14 34t33 15q20 0 34 -14q13 -15 13 -35
z" />
    <glyph glyph-name="Idotaccent" unicode="&#x130;" horiz-adv-x="403" 
d="M434 1452q0 -20 -13 -34t-33 -15q-20 0 -35 14q-13 15 -13 35t13 34t33 15q20 0 35 -14q13 -15 13 -35zM385 1257l-221 -1257h-64l222 1257h63z" />
    <glyph glyph-name="dotlessi" unicode="&#x131;" horiz-adv-x="368" 
d="M295 909l-160 -909h-61l159 909h62z" />
    <glyph glyph-name="IJ" unicode="&#x132;" horiz-adv-x="1093" 
d="M573 45q131 0 200 72t99 250l158 890h64l-158 -890q-37 -205 -123 -294t-238 -89q-78 0 -144 28t-101 62l12 69q100 -98 231 -98zM385 1257l-221 -1257h-64l222 1257h63z" />
    <glyph glyph-name="ij" unicode="&#x133;" horiz-adv-x="737" 
d="M727 1186q0 -20 -13 -34q-14 -14 -34 -15q-20 0 -34 14q-13 15 -13 35t13 34q14 14 34 15q20 0 34 -14q13 -15 13 -35zM248 -307q70 0 110 36t58 130l186 1050h62l-187 -1059q-39 -215 -229 -215q-29 1 -45 5l10 57q16 -4 35 -4zM358 1186q0 -20 -13 -34t-33 -15
q-20 0 -34 14q-14 15 -14 35t14 34t33 15q20 0 34 -14q13 -15 13 -35zM295 909l-160 -909h-61l159 909h62z" />
    <glyph glyph-name="Jcircumflex" unicode="&#x134;" horiz-adv-x="751" 
d="M807 1604l143 -240h-59l-117 188l-182 -188h-68l230 240h53zM232 45q130 0 199 72t99 250l158 890h64l-158 -890q-37 -205 -123 -294t-238 -89q-78 0 -144 28t-101 62l12 69q102 -98 232 -98z" />
    <glyph glyph-name="jcircumflex" unicode="&#x135;" horiz-adv-x="368" 
d="M-121 -307q70 0 110 36t58 130l186 1050h62l-186 -1059q-39 -215 -230 -215q-29 1 -45 5l10 57q16 -4 35 -4zM358 1317l99 -260h-58l-73 205l-148 -205h-65l192 260h53z" />
    <glyph glyph-name="Kcommaaccent" unicode="&#x136;" horiz-adv-x="1064" 
d="M397 -154q-1 23 15 39q16 17 39 17t37 -16q35 -40 -7 -99l-92 -135h-51l98 145q-39 6 -39 49zM385 1257l-102 -583l782 583h94l-825 -612l620 -645h-84l-598 621l-108 -621h-64l222 1257h63z" />
    <glyph glyph-name="kcommaaccent" unicode="&#x137;" horiz-adv-x="841" 
d="M387 -156q0 -25 -22 -57l-93 -135h-51l98 145q-39 6 -38 49q0 23 15 39q15 17 38 17t38 -16t15 -42zM291 485l440 -485h-76l-436 475l-84 -475h-61l233 1331h62l-146 -825l568 403h92z" />
    <glyph glyph-name="kgreenlandic" unicode="&#x138;" horiz-adv-x="841" 
d="M291 485l440 -485h-76l-436 475l-84 -475h-61l159 909h62l-72 -403l568 403h92z" />
    <glyph glyph-name="Lacute" unicode="&#x139;" horiz-adv-x="1028" 
d="M418 1358h-72l217 239h72zM100 0l222 1257h63l-211 -1196h713l-10 -61h-777z" />
    <glyph glyph-name="lacute" unicode="&#x13a;" horiz-adv-x="368" 
d="M391 1405h-72l218 240h71zM369 1331l-234 -1331h-61l233 1331h62z" />
    <glyph glyph-name="Lcommaaccent" unicode="&#x13b;" horiz-adv-x="1028" 
d="M432 -154q0 23 15 39q15 17 38 17t38 -16q36 -39 -7 -99l-92 -135h-51l98 145q-39 6 -39 49zM100 0l222 1257h63l-211 -1196h713l-10 -61h-777z" />
    <glyph glyph-name="lcommaaccent" unicode="&#x13c;" horiz-adv-x="368" 
d="M131 -156q0 -25 -22 -57l-93 -135h-51l98 145q-39 6 -38 49q0 23 15 39q15 17 38 17t38 -16t15 -42zM369 1331l-234 -1331h-61l233 1331h62z" />
    <glyph glyph-name="Lcaron" unicode="&#x13d;" horiz-adv-x="1028" 
d="M793 936h-58l164 321h57zM100 0l222 1257h63l-211 -1196h713l-10 -61h-777z" />
    <glyph glyph-name="lcaron" unicode="&#x13e;" horiz-adv-x="368" 
d="M469 1010h-57l163 321h58zM369 1331l-234 -1331h-61l233 1331h62z" />
    <glyph glyph-name="Ldot" unicode="&#x13f;" horiz-adv-x="1028" 
d="M829 629q0 -21 -13 -35q-14 -14 -34 -14t-33 14t-13 34t12 36q14 14 34 14t34 -14q13 -15 13 -35zM100 0l222 1257h63l-211 -1196h713l-10 -61h-777z" />
    <glyph glyph-name="ldot" unicode="&#x140;" horiz-adv-x="538" 
d="M549 666q0 -20 -13 -34q-14 -14 -34 -16q-20 0 -34 14t-13 36q0 20 13 34q14 14 34 14t34 -14t13 -34zM369 1331l-234 -1331h-61l233 1331h62z" />
    <glyph glyph-name="Lslash" unicode="&#x141;" horiz-adv-x="1052" 
d="M94 537l12 61l132 47l108 612h64l-105 -589l326 118l-13 -61l-323 -119l-96 -545h712l-10 -61h-776l102 584z" />
    <glyph glyph-name="lslash" unicode="&#x142;" horiz-adv-x="450" 
d="M410 1331l-91 -506l154 101l-10 -70l-156 -102l-131 -754h-61l125 715l-142 -94l11 69l143 94l96 547h62z" />
    <glyph glyph-name="Nacute" unicode="&#x143;" horiz-adv-x="1251" 
d="M825 1358h-71l217 239h71zM1233 1257l-221 -1257h-35l-610 1167l-205 -1167h-62l222 1257h61l590 -1124l198 1124h62z" />
    <glyph glyph-name="nacute" unicode="&#x144;" horiz-adv-x="980" 
d="M629 1071h-70l219 260h70zM807 666q0 92 -51 146t-156 54t-199 -61t-151 -154l-115 -651h-61l159 909h62l-29 -168q60 80 150 132q90 53 202 53t183 -68q70 -68 69 -182q0 -33 -6 -70l-106 -606h-62l105 598q6 37 6 68z" />
    <glyph glyph-name="Ncommaaccent" unicode="&#x145;" horiz-adv-x="1251" 
d="M475 -154q0 23 15 39q15 17 38 17t38 -16q36 -39 -7 -99l-92 -135h-51l98 145q-39 6 -39 49zM1233 1257l-221 -1257h-35l-610 1167l-205 -1167h-62l222 1257h61l590 -1124l198 1124h62z" />
    <glyph glyph-name="ncommaaccent" unicode="&#x146;" horiz-adv-x="980" 
d="M332 -154q0 23 15 39q15 17 38 17t38 -16t15 -42q0 -25 -22 -57l-92 -135h-52l99 145q-39 6 -39 49zM807 666q0 92 -51 146t-156 54t-199 -61t-151 -154l-115 -651h-61l159 909h62l-29 -168q60 80 150 132q90 53 202 53t183 -68q70 -68 69 -182q0 -33 -6 -70l-106 -606
h-62l105 598q6 37 6 68z" />
    <glyph glyph-name="Ncaron" unicode="&#x147;" horiz-adv-x="1251" 
d="M766 1343l-143 240h59l117 -188l182 188h68l-230 -240h-53zM1233 1257l-221 -1257h-35l-610 1167l-205 -1167h-62l222 1257h61l590 -1124l198 1124h62z" />
    <glyph glyph-name="ncaron" unicode="&#x148;" horiz-adv-x="980" 
d="M573 1061l-139 260h60l110 -211l189 211h67l-233 -260h-54zM807 666q0 92 -51 146t-156 54t-199 -61t-151 -154l-115 -651h-61l159 909h62l-29 -168q60 80 150 132q90 53 202 53t183 -68q70 -68 69 -182q0 -33 -6 -70l-106 -606h-62l105 598q6 37 6 68z" />
    <glyph glyph-name="Eng" unicode="&#x14a;" horiz-adv-x="1251" 
d="M653 -369q-79 0 -145 28t-100 62l12 70q100 -98 235 -98t202 79q66 79 99 267l-589 1128l-205 -1167h-62l222 1257h61l590 -1124l198 1124h62l-219 -1243q-37 -205 -123 -294t-238 -89z" />
    <glyph glyph-name="eng" unicode="&#x14b;" horiz-adv-x="980" 
d="M502 -307q70 0 110 36t58 130l131 739q6 37 6 68q0 92 -51 146t-156 54t-199 -61t-151 -154l-115 -651h-61l159 909h62l-29 -168q60 80 150 132q90 53 202 53t183 -68q70 -68 69 -182q0 -33 -6 -70l-133 -756q-39 -215 -229 -215q-29 1 -45 5l10 57q16 -4 35 -4z" />
    <glyph glyph-name="Omacron" unicode="&#x14c;" horiz-adv-x="1257" 
d="M594 1372l8 55h395l-8 -55h-395zM574 -16q-198 0 -331 150q-134 150 -134 394q-1 184 71 352t219 282q147 112 345 112t332 -151t134 -394q0 -184 -72 -352t-218 -281q-148 -112 -346 -112zM575 45q177 0 308 101q262 202 262 602q0 194 -112 329t-289 135t-308 -101
q-130 -101 -196 -255t-66 -348t112 -328q112 -135 289 -135z" />
    <glyph glyph-name="omacron" unicode="&#x14d;" horiz-adv-x="954" 
d="M395 1110l11 55h395l-10 -55h-396zM424 -16q-158 0 -249 104t-91 279q0 247 128 403t318 156q158 0 249 -104t91 -279q0 -247 -128 -403t-318 -156zM424 41q164 0 274 138t109 364q0 149 -75 237t-202 88q-164 0 -274 -138t-109 -363q0 -150 75 -238t202 -88z" />
    <glyph glyph-name="Obreve" unicode="&#x14e;" horiz-adv-x="1257" 
d="M797 1358q-82 0 -129 62t-27 171h55q-16 -86 14 -134t89 -48t105 48t63 134h55q-20 -111 -82 -172t-143 -61zM574 -16q-198 0 -331 150q-134 150 -134 394q-1 184 71 352t219 282q147 112 345 112t332 -151t134 -394q0 -184 -72 -352t-218 -281q-148 -112 -346 -112z
M575 45q177 0 308 101q262 202 262 602q0 194 -112 329t-289 135t-308 -101q-130 -101 -196 -255t-66 -348t112 -328q112 -135 289 -135z" />
    <glyph glyph-name="obreve" unicode="&#x14f;" horiz-adv-x="954" 
d="M586 1044q-82 0 -129 62t-27 172h55q-16 -86 14 -134t89 -48t105 48t63 134h55q-19 -110 -81 -172t-144 -62zM424 -16q-158 0 -249 104t-91 279q0 247 128 403t318 156q158 0 249 -104t91 -279q0 -247 -128 -403t-318 -156zM424 41q164 0 274 138t109 364q0 149 -75 237
t-202 88q-164 0 -274 -138t-109 -363q0 -150 75 -238t202 -88z" />
    <glyph glyph-name="Ohungarumlaut" unicode="&#x150;" horiz-adv-x="1257" 
d="M920 1358h-68l205 239h67zM709 1358h-68l205 239h67zM574 -16q-198 0 -331 150q-134 150 -134 394q-1 184 71 352t219 282q147 112 345 112t332 -151t134 -394q0 -184 -72 -352t-218 -281q-148 -112 -346 -112zM575 45q177 0 308 101q262 202 262 602q0 194 -112 329
t-289 135t-308 -101q-130 -101 -196 -255t-66 -348t112 -328q112 -135 289 -135z" />
    <glyph glyph-name="ohungarumlaut" unicode="&#x151;" horiz-adv-x="954" 
d="M707 1071h-66l207 260h65zM496 1071h-66l207 260h65zM424 -16q-158 0 -249 104t-91 279q0 247 128 403t318 156q158 0 249 -104t91 -279q0 -247 -128 -403t-318 -156zM424 41q164 0 274 138t109 364q0 149 -75 237t-202 88q-164 0 -274 -138t-109 -363q0 -150 75 -238
t202 -88z" />
    <glyph glyph-name="OE" unicode="&#x152;" horiz-adv-x="1728" 
d="M174 518q0 -211 118 -334t333 -123h180l199 1135h-181q-274 0 -462 -190q-187 -191 -187 -488zM616 0q-240 0 -374 140t-133 378q0 326 212 533t517 206h919l-12 -61h-680l-90 -518h614l-10 -60h-614l-99 -557h680l-10 -61h-920z" />
    <glyph glyph-name="oe" unicode="&#x153;" horiz-adv-x="1607" 
d="M1483 594q-1 118 -57 196t-186 78t-231 -100t-139 -252h607q6 39 6 78zM424 41q164 0 274 138t109 364q0 149 -75 237t-202 88q-164 0 -274 -138t-109 -363q0 -150 75 -238t202 -88zM530 926q127 0 212 -74t116 -199q60 121 160 197t239 76t213 -88t74 -248
q0 -61 -12 -129h-672q-6 -47 -6 -94q0 -154 78 -241t222 -87t265 92l-14 -74q-103 -73 -249 -73t-233 70t-118 192q-59 -121 -159 -192t-222 -70q-158 0 -249 104t-91 279q0 247 128 403t318 156z" />
    <glyph glyph-name="Racute" unicode="&#x154;" horiz-adv-x="1107" 
d="M748 1358h-72l217 239h72zM637 633q174 0 275 88t102 246q0 111 -77 170t-218 59h-346l-99 -563h363zM735 1257q156 1 249 -75t93 -230t-106 -258q-106 -102 -281 -119l283 -575h-66l-284 573h-359l-100 -573h-64l222 1257h413z" />
    <glyph glyph-name="racute" unicode="&#x155;" horiz-adv-x="585" 
d="M487 1071h-69l219 260h70zM551 868q-88 0 -166 -59t-135 -156l-115 -653h-61l159 909h62l-29 -166q49 80 128 131t167 52q37 -1 68 -11l-11 -57q-31 10 -67 10z" />
    <glyph glyph-name="Rcommaaccent" unicode="&#x156;" horiz-adv-x="1107" 
d="M397 -154q-1 23 15 39q16 17 39 17t37 -16q35 -40 -7 -99l-92 -135h-51l98 145q-39 6 -39 49zM637 633q174 0 275 88t102 246q0 111 -77 170t-218 59h-346l-99 -563h363zM735 1257q156 1 249 -75t93 -230t-106 -258q-106 -102 -281 -119l283 -575h-66l-284 573h-359
l-100 -573h-64l222 1257h413z" />
    <glyph glyph-name="rcommaaccent" unicode="&#x157;" horiz-adv-x="585" 
d="M29 -154q0 23 15 39q15 17 38 17t38 -16t15 -42q0 -25 -22 -57l-93 -135h-51l99 145q-39 6 -39 49zM551 868q-88 0 -166 -59t-135 -156l-115 -653h-61l159 909h62l-29 -166q49 80 128 131t167 52q37 -1 68 -11l-11 -57q-31 10 -67 10z" />
    <glyph glyph-name="Rcaron" unicode="&#x158;" horiz-adv-x="1107" 
d="M688 1343l-143 240h59l117 -188l182 188h68l-230 -240h-53zM637 633q174 0 275 88t102 246q0 111 -77 170t-218 59h-346l-99 -563h363zM735 1257q156 1 249 -75t93 -230t-106 -258q-106 -102 -281 -119l283 -575h-66l-284 573h-359l-100 -573h-64l222 1257h413z" />
    <glyph glyph-name="rcaron" unicode="&#x159;" horiz-adv-x="585" 
d="M432 1061l-139 260h59l111 -211l188 211h68l-234 -260h-53zM551 868q-88 0 -166 -59t-135 -156l-115 -653h-61l159 909h62l-29 -166q49 80 128 131t167 52q37 -1 68 -11l-11 -57q-31 10 -67 10z" />
    <glyph glyph-name="Sacute" unicode="&#x15a;" horiz-adv-x="950" 
d="M678 1358h-72l217 239h72zM397 45q168 0 272 85q103 85 103 224q0 74 -46 123t-155 101l-172 81q-61 29 -102 56t-79 83t-38 126q0 168 127 259t315 91t306 -107l-15 -75q-119 121 -311 120q-152 0 -255 -74t-103 -214q0 -72 50 -120t150 -95l177 -84q215 -103 215 -269
t-126 -269t-313 -103q-241 0 -364 133l14 78q133 -150 350 -150z" />
    <glyph glyph-name="sacute" unicode="&#x15b;" horiz-adv-x="759" 
d="M520 1071h-69l219 260h69zM315 41q113 0 189 55q76 54 76 154t-127 153l-162 70q-80 35 -121 79t-41 118q0 112 88 184q87 72 229 72t259 -99l-13 -69q-111 111 -258 110q-100 0 -171 -55t-70 -143q-1 -53 33 -85t108 -63l166 -71q143 -61 143 -187t-93 -204
q-92 -76 -250 -76t-275 102l14 72q111 -117 276 -117z" />
    <glyph glyph-name="Scircumflex" unicode="&#x15c;" horiz-adv-x="950" 
d="M713 1604l143 -240h-59l-117 188l-182 -188h-68l229 240h54zM397 45q168 0 272 85q103 85 103 224q0 74 -46 123t-155 101l-172 81q-61 29 -102 56t-79 83t-38 126q0 168 127 259t315 91t306 -107l-15 -75q-119 121 -311 120q-152 0 -255 -74t-103 -214q0 -72 50 -120
t150 -95l177 -84q215 -103 215 -269t-126 -269t-313 -103q-241 0 -364 133l14 78q133 -150 350 -150z" />
    <glyph glyph-name="scircumflex" unicode="&#x15d;" horiz-adv-x="759" 
d="M553 1317l139 -260h-59l-111 211l-188 -211h-68l234 260h53zM315 41q113 0 189 55q76 54 76 154t-127 153l-162 70q-80 35 -121 79t-41 118q0 112 88 184q87 72 229 72t259 -99l-13 -69q-111 111 -258 110q-100 0 -171 -55t-70 -143q-1 -53 33 -85t108 -63l166 -71
q143 -61 143 -187t-93 -204q-92 -76 -250 -76t-275 102l14 72q111 -117 276 -117z" />
    <glyph glyph-name="Scedilla" unicode="&#x15e;" horiz-adv-x="950" 
d="M272 -348h-63l156 254h63zM397 45q168 0 272 85q103 85 103 224q0 74 -46 123t-155 101l-172 81q-61 29 -102 56t-79 83t-38 126q0 168 127 259t315 91t306 -107l-15 -75q-119 121 -311 120q-152 0 -255 -74t-103 -214q0 -72 50 -120t150 -95l177 -84q215 -103 215 -269
t-126 -269t-313 -103q-241 0 -364 133l14 78q133 -150 350 -150z" />
    <glyph glyph-name="scedilla" unicode="&#x15f;" horiz-adv-x="759" 
d="M166 -348h-64l156 254h64zM315 41q113 0 189 55q76 54 76 154t-127 153l-162 70q-80 35 -121 79t-41 118q0 112 88 184q87 72 229 72t259 -99l-13 -69q-111 111 -258 110q-100 0 -171 -55t-70 -143q-1 -53 33 -85t108 -63l166 -71q143 -61 143 -187t-93 -204
q-92 -76 -250 -76t-275 102l14 72q111 -117 276 -117z" />
    <glyph glyph-name="Scaron" unicode="&#x160;" horiz-adv-x="950" 
d="M618 1343l-143 240h60l116 -188l183 188h67l-229 -240h-54zM397 45q168 0 272 85q103 85 103 224q0 74 -46 123t-155 101l-172 81q-61 29 -102 56t-79 83t-38 126q0 168 127 259t315 91t306 -107l-15 -75q-119 121 -311 120q-152 0 -255 -74t-103 -214q0 -72 50 -120
t150 -95l177 -84q215 -103 215 -269t-126 -269t-313 -103q-241 0 -364 133l14 78q133 -150 350 -150z" />
    <glyph glyph-name="scaron" unicode="&#x161;" horiz-adv-x="759" 
d="M465 1061l-139 260h59l111 -211l188 211h68l-234 -260h-53zM315 41q113 0 189 55q76 54 76 154t-127 153l-162 70q-80 35 -121 79t-41 118q0 112 88 184q87 72 229 72t259 -99l-13 -69q-111 111 -258 110q-100 0 -171 -55t-70 -143q-1 -53 33 -85t108 -63l166 -71
q143 -61 143 -187t-93 -204q-92 -76 -250 -76t-275 102l14 72q111 -117 276 -117z" />
    <glyph glyph-name="Tcedilla" unicode="&#x162;" horiz-adv-x="1142" 
d="M416 -154q0 23 15 39q15 17 38 17t38 -16t15 -42q0 -25 -22 -57l-92 -135h-52l99 145q-39 6 -39 49zM195 1196l12 61h1016l-13 -61h-477l-209 -1196h-63l209 1196h-475z" />
    <glyph glyph-name="tcedilla" unicode="&#x163;" horiz-adv-x="561" 
d="M111 -154q0 23 15 39q15 17 38 17t38 -16t15 -42q0 -25 -22 -57l-93 -135h-51l99 145q-39 6 -39 49zM371 852l-150 -852h-61l149 852h-198l10 57h198l41 230h62l-41 -230h219l-10 -57h-219z" />
    <glyph glyph-name="Tcaron" unicode="&#x164;" horiz-adv-x="1142" 
d="M707 1343l-144 240h60l116 -188l183 188h67l-229 -240h-53zM195 1196l12 61h1016l-13 -61h-477l-209 -1196h-63l209 1196h-475z" />
    <glyph glyph-name="tcaron" unicode="&#x165;" horiz-adv-x="561" 
d="M563 1030h-57l164 322h57zM371 852l-150 -852h-61l149 852h-198l10 57h198l41 230h62l-41 -230h219l-10 -57h-219z" />
    <glyph glyph-name="Tbar" unicode="&#x166;" horiz-adv-x="1142" 
d="M195 1196l12 61h1016l-13 -61h-477l-90 -516h250l-10 -57h-250l-109 -623h-63l108 623h-241l10 57h242l90 516h-475z" />
    <glyph glyph-name="tbar" unicode="&#x167;" horiz-adv-x="561" 
d="M371 852l-47 -270h172l-11 -56h-172l-92 -526h-61l92 526h-162l10 56h162l47 270h-198l10 57h198l41 230h62l-41 -230h219l-10 -57h-219z" />
    <glyph glyph-name="Utilde" unicode="&#x168;" horiz-adv-x="1236" 
d="M688 1503q-78 0 -102 -137h-54q16 90 58 142t95 52q52 0 87 -35q35 -36 64 -72t61 -36q77 0 102 137h54q-37 -195 -162 -194q-43 0 -78 36t-65 72t-60 35zM578 -16q-196 0 -316 104q-119 104 -119 295q0 45 11 111l135 763h63l-133 -753q-10 -66 -10 -111
q0 -172 100 -261t271 -89t294 116t164 345l133 753h64l-135 -763q-46 -254 -186 -382t-336 -128z" />
    <glyph glyph-name="utilde" unicode="&#x169;" horiz-adv-x="976" 
d="M700 1073q-44 0 -78 36t-64 72t-60 36q-78 0 -103 -138h-53q16 91 58 143t104 52q34 0 64 -23t47 -49q46 -71 92 -72q77 1 102 138h53q-37 -195 -162 -195zM356 -16q-112 0 -181 66t-69 181q0 35 7 72l106 606h62l-105 -598q-6 -37 -6 -71q0 -92 49 -144t154 -53
q105 0 199 61t151 154l115 651h61l-160 -909h-61l29 168q-61 -80 -151 -132q-88 -52 -200 -52z" />
    <glyph glyph-name="Umacron" unicode="&#x16a;" horiz-adv-x="1236" 
d="M582 1372l8 55h395l-8 -55h-395zM578 -16q-196 0 -316 104q-119 104 -119 295q0 45 11 111l135 763h63l-133 -753q-10 -66 -10 -111q0 -172 100 -261t271 -89t294 116t164 345l133 753h64l-135 -763q-46 -254 -186 -382t-336 -128z" />
    <glyph glyph-name="umacron" unicode="&#x16b;" horiz-adv-x="976" 
d="M393 1110l10 55h396l-11 -55h-395zM356 -16q-112 0 -181 66t-69 181q0 35 7 72l106 606h62l-105 -598q-6 -37 -6 -71q0 -92 49 -144t154 -53q105 0 199 61t151 154l115 651h61l-160 -909h-61l29 168q-61 -80 -151 -132q-88 -52 -200 -52z" />
    <glyph glyph-name="Ubreve" unicode="&#x16c;" horiz-adv-x="1236" 
d="M784 1358q-82 0 -129 62t-26 171h55q-16 -86 14 -134t88 -48q59 0 106 48q46 48 62 134h56q-20 -111 -82 -172t-144 -61zM578 -16q-196 0 -316 104q-119 104 -119 295q0 45 11 111l135 763h63l-133 -753q-10 -66 -10 -111q0 -172 100 -261t271 -89t294 116t164 345
l133 753h64l-135 -763q-46 -254 -186 -382t-336 -128z" />
    <glyph glyph-name="ubreve" unicode="&#x16d;" horiz-adv-x="976" 
d="M584 1044q-82 0 -129 62t-27 172h55q-16 -86 14 -134t89 -48t105 48t63 134h55q-19 -110 -81 -172t-144 -62zM356 -16q-112 0 -181 66t-69 181q0 35 7 72l106 606h62l-105 -598q-6 -37 -6 -71q0 -92 49 -144t154 -53q105 0 199 61t151 154l115 651h61l-160 -909h-61
l29 168q-61 -80 -151 -132q-88 -52 -200 -52z" />
    <glyph glyph-name="Uring" unicode="&#x16e;" horiz-adv-x="1236" 
d="M784 1325q-66 0 -111 43q-44 43 -44 109q0 67 47 115q48 48 114 48t110 -43t44 -109t-47 -114q-47 -49 -113 -49zM680 1481q0 -45 30 -75t73 -30q44 0 77 32t33 77t-30 75q-29 30 -73 30t-77 -32t-33 -77zM578 -16q-196 0 -316 104q-119 104 -119 295q0 45 11 111
l135 763h63l-133 -753q-10 -66 -10 -111q0 -172 100 -261t271 -89t294 116t164 345l133 753h64l-135 -763q-46 -254 -186 -382t-336 -128z" />
    <glyph glyph-name="uring" unicode="&#x16f;" horiz-adv-x="976" 
d="M604 1030q-66 0 -111 43q-44 43 -44 109t47 114t113 50q67 0 111 -43t44 -109t-47 -115t-113 -49zM603 1081q44 0 77 32t33 77t-30 75q-30 29 -74 29t-77 -32q-32 -32 -32 -76q0 -45 30 -75t73 -30zM356 -16q-112 0 -181 66t-69 181q0 35 7 72l106 606h62l-105 -598
q-6 -37 -6 -71q0 -92 49 -144t154 -53q105 0 199 61t151 154l115 651h61l-160 -909h-61l29 168q-61 -80 -151 -132q-88 -52 -200 -52z" />
    <glyph glyph-name="Uhungarumlaut" unicode="&#x170;" horiz-adv-x="1236" 
d="M889 1358h-68l205 239h68zM678 1358h-68l205 239h68zM578 -16q-196 0 -316 104q-119 104 -119 295q0 45 11 111l135 763h63l-133 -753q-10 -66 -10 -111q0 -172 100 -261t271 -89t294 116t164 345l133 753h64l-135 -763q-46 -254 -186 -382t-336 -128z" />
    <glyph glyph-name="uhungarumlaut" unicode="&#x171;" horiz-adv-x="976" 
d="M707 1071h-66l207 260h65zM496 1071h-66l207 260h65zM356 -16q-112 0 -181 66t-69 181q0 35 7 72l106 606h62l-105 -598q-6 -37 -6 -71q0 -92 49 -144t154 -53q105 0 199 61t151 154l115 651h61l-160 -909h-61l29 168q-61 -80 -151 -132q-88 -52 -200 -52z" />
    <glyph glyph-name="Uogonek" unicode="&#x172;" horiz-adv-x="1236" 
d="M567 -16q-186 0 -305 104t-119 295q0 45 11 111l135 763h63l-133 -753q-10 -66 -10 -111q0 -172 100 -261t271 -89t294 116t164 345l133 753h64l-135 -763q-31 -166 -94 -262t-171 -186q-212 -175 -212 -322q0 -41 39 -41t83 28l-10 -51q-39 -27 -79 -27t-64 23t-25 68
q0 109 146 278q-68 -18 -146 -18z" />
    <glyph glyph-name="uogonek" unicode="&#x173;" horiz-adv-x="976" 
d="M356 -16q-112 0 -181 66t-69 181q0 35 7 72l106 606h62l-105 -598q-6 -37 -6 -71q0 -92 49 -144t154 -53q105 0 199 61t151 154l115 651h61l-160 -909q-94 -133 -122 -183q-27 -50 -27 -92t39 -42t84 28l-11 -51q-38 -27 -78 -27t-65 23t-24 61t20 88q20 49 69 114
q48 65 58 81h-4l29 168q-61 -80 -151 -132q-88 -52 -200 -52z" />
    <glyph glyph-name="Wcircumflex" unicode="&#x174;" horiz-adv-x="1542" 
d="M1004 1604l143 -240h-60l-116 188l-183 -188h-67l229 240h54zM895 1257h53l96 -1140l537 1140h64l-592 -1257h-56l-98 1137l-534 -1137h-56l-108 1257h61l96 -1140z" />
    <glyph glyph-name="wcircumflex" unicode="&#x175;" horiz-adv-x="1200" 
d="M770 1317l139 -260h-59l-111 211l-188 -211h-68l234 260h53zM700 909l78 -788l404 788h61l-465 -909h-43l-78 797l-405 -797h-43l-92 909h57l82 -788l399 788h45z" />
    <glyph glyph-name="Ycircumflex" unicode="&#x176;" horiz-adv-x="1062" 
d="M768 1604l143 -240h-59l-117 188l-182 -188h-68l230 240h53zM565 608l535 649h74l-584 -708l-96 -549h-64l96 549l-333 708h67z" />
    <glyph glyph-name="ycircumflex" unicode="&#x177;" horiz-adv-x="851" 
d="M586 1317l139 -260h-59l-111 211l-188 -211h-68l233 260h54zM137 -348h-65l227 377l-182 880h63l162 -807l485 807h68z" />
    <glyph glyph-name="Ydieresis" unicode="&#x178;" horiz-adv-x="1062" 
d="M788 1454q0 20 14 34t34 13q20 0 33 -13q13 -14 13 -34t-12 -34q-14 -14 -34 -13q-20 -1 -34 13t-14 34zM555 1454q0 20 13 34q14 14 34 13q20 0 34 -13q14 -14 13 -34q0 -20 -13 -34q-14 -14 -34 -13q-20 0 -34 13q-13 14 -13 34zM565 608l535 649h74l-584 -708
l-96 -549h-64l96 549l-333 708h67z" />
    <glyph glyph-name="Zacute" unicode="&#x179;" horiz-adv-x="1042" 
d="M717 1358h-72l217 239h72zM-31 0v8l1053 1188h-778l12 61h891v-8l-1051 -1188h799l-10 -61h-916z" />
    <glyph glyph-name="zacute" unicode="&#x17a;" horiz-adv-x="841" 
d="M596 1071h-70l219 260h70zM-23 0v8l766 844h-550l10 57h659v-8l-764 -844h572l-8 -57h-685z" />
    <glyph glyph-name="Zdotaccent" unicode="&#x17b;" horiz-adv-x="1042" 
d="M750 1452q0 -20 -14 -34t-34 -15q-20 0 -33 14q-13 15 -13 35t12 34q14 14 34 15q20 -1 34 -15t14 -34zM-31 0v8l1053 1188h-778l12 61h891v-8l-1051 -1188h799l-10 -61h-916z" />
    <glyph glyph-name="zdotaccent" unicode="&#x17c;" horiz-adv-x="841" 
d="M633 1186q0 -20 -13 -34q-14 -14 -34 -15q-20 0 -34 14q-13 15 -13 35t13 34q14 14 34 15q20 0 34 -14q13 -15 13 -35zM-23 0v8l766 844h-550l10 57h659v-8l-764 -844h572l-8 -57h-685z" />
    <glyph glyph-name="Zcaron" unicode="&#x17d;" horiz-adv-x="1042" 
d="M657 1343l-143 240h59l117 -188l182 188h68l-229 -240h-54zM-31 0v8l1053 1188h-778l12 61h891v-8l-1051 -1188h799l-10 -61h-916z" />
    <glyph glyph-name="zcaron" unicode="&#x17e;" horiz-adv-x="841" 
d="M539 1061l-140 260h60l110 -211l189 211h67l-233 -260h-53zM-23 0v8l766 844h-550l10 57h659v-8l-764 -844h572l-8 -57h-685z" />
    <glyph glyph-name="florin" unicode="&#x192;" horiz-adv-x="737" 
d="M719 1274q72 0 121 -25l-6 -61q-57 29 -115 29q-145 0 -205 -199l-104 -338h200l-10 -53h-207l-221 -727q-76 -248 -238 -248q-84 0 -133 24l6 62q57 -29 123 -29t107 46t74 153l219 719h-170l10 53h176l107 346q78 248 266 248z" />
    <glyph glyph-name="Aringacute" unicode="&#x1fa;" horiz-adv-x="1161" 
d="M877 1659h-72l151 168h72zM688 1454q0 -40 30 -64t74 -24t76 27t33 65q0 38 -30 64q-29 24 -73 24t-77 -26t-33 -66zM792 1317q-66 0 -111 38q-44 38 -44 95t47 101q48 44 114 44q66 1 110 -37t44 -96t-47 -101q-47 -44 -113 -44zM745 1169l-399 -669h535zM731 1257h57
l254 -1257h-61l-88 440h-584l-262 -440h-70z" />
    <glyph glyph-name="aringacute" unicode="&#x1fb;" horiz-adv-x="872" 
d="M378 477q-106 0 -194 -62q-88 -63 -88 -163t69 -154t166 -55q97 0 176 43t114 109l24 131q-18 63 -90 107q-71 44 -177 44zM514 868q-150 0 -291 -86l13 70q125 74 261 74q135 0 203 -60t68 -164q0 -23 -6 -59l-113 -643h-61l16 98q-45 -47 -120 -80t-152 -32
q-129 0 -213 72t-84 193q0 120 104 202t246 82q95 0 167 -38t107 -85l41 237q4 33 5 47q-1 80 -51 126t-140 46zM653 1329h-71l151 168h72zM729 1133q0 -57 -47 -101q-48 -44 -114 -45q-66 0 -110 38t-44 95q0 58 47 102t113 44t111 -38q44 -38 44 -95zM574 1217
q-44 0 -76 -27t-33 -66q-1 -40 29 -64t74 -24t77 27t33 65t-30 64q-30 25 -74 25z" />
    <glyph glyph-name="AEacute" unicode="&#x1fc;" horiz-adv-x="1771" 
d="M1425 1358h-71l217 239h71zM1047 1202l-582 -702h457zM1016 1257h784l-12 -61h-680l-90 -518h614l-10 -60h-614l-99 -557h680l-10 -61h-743l75 440h-495l-365 -440h-74z" />
    <glyph glyph-name="aeacute" unicode="&#x1fd;" horiz-adv-x="1472" 
d="M860 1071h-69l219 260h69zM1105 868q-131 0 -231 -100t-137 -252h604q6 39 7 78q0 118 -56 196t-187 78zM94 225q0 -82 54 -133t158 -51q102 0 193 70t142 174l31 176h-252q-142 -1 -234 -57t-92 -179zM418 516h264q25 158 25 180q-1 80 -51 126t-140 46q-150 0 -291 -86
l13 70q125 74 256 74q256 0 268 -215q53 96 147 155q94 60 223 60t203 -88t74 -248q0 -61 -12 -129h-670q-6 -47 -6 -94q0 -154 78 -241q79 -87 221 -87t264 92l-14 -74q-102 -73 -248 -73q-283 1 -344 260q-56 -111 -158 -185q-102 -73 -224 -73t-192 66t-69 173
q0 141 106 216t277 75z" />
    <glyph glyph-name="Oslashacute" unicode="&#x1fe;" horiz-adv-x="1277" 
d="M829 1358h-71l217 239h72zM590 45q172 0 303 101t197 255t66 329t-79 304l-766 -876q107 -113 279 -113zM754 1212q-176 0 -308 -101t-196 -255q-66 -154 -66 -340t90 -313l768 878q-112 131 -288 131zM755 1274q198 0 328 -148l113 131l45 -36l-123 -140
q102 -141 102 -339t-71 -365q-72 -168 -219 -281q-148 -112 -338 -112t-320 129l-131 -150l-45 37l137 156q-115 152 -115 354t72 370t220 282q148 112 345 112z" />
    <glyph glyph-name="oslashacute" unicode="&#x1ff;" horiz-adv-x="974" 
d="M633 1071h-70l219 260h70zM434 41q164 0 274 138t109 364q0 121 -45 198l-526 -630q69 -70 188 -70zM158 367q0 -135 53 -215l530 634q-76 82 -200 82q-163 0 -273 -138t-110 -363zM94 367q0 247 128 403t319 156q147 0 237 -95l105 125l43 -30l-113 -135
q68 -102 68 -248q0 -246 -128 -403t-319 -156q-139 0 -227 82l-101 -121l-43 30l107 129q-76 100 -76 263z" />
    <glyph glyph-name="Scommaaccent" unicode="&#x218;" horiz-adv-x="950" 
d="M328 -154q0 23 15 39q15 17 38 17t38 -16t15 -42q0 -25 -22 -57l-93 -135h-51l99 145q-39 6 -39 49zM397 45q168 0 272 85q103 85 103 224q0 74 -46 123t-155 101l-172 81q-61 29 -102 56t-79 83t-38 126q0 168 127 259t315 91t306 -107l-15 -75q-119 121 -311 120
q-152 0 -255 -74t-103 -214q0 -72 50 -120t150 -95l177 -84q215 -103 215 -269t-126 -269t-313 -103q-241 0 -364 133l14 78q133 -150 350 -150z" />
    <glyph glyph-name="scommaaccent" unicode="&#x219;" horiz-adv-x="759" 
d="M221 -154q-1 23 15 39q16 17 38 17t38 -16q36 -39 -7 -99l-92 -135h-51l98 145q-39 6 -39 49zM315 41q113 0 189 55q76 54 76 154t-127 153l-162 70q-80 35 -121 79t-41 118q0 112 88 184q87 72 229 72t259 -99l-13 -69q-111 111 -258 110q-100 0 -171 -55t-70 -143
q-1 -53 33 -85t108 -63l166 -71q143 -61 143 -187t-93 -204q-92 -76 -250 -76t-275 102l14 72q111 -117 276 -117z" />
    <glyph glyph-name="uni0237" unicode="&#x237;" horiz-adv-x="368" 
d="M-121 -307q70 0 110 36t58 130l186 1050h62l-186 -1059q-39 -215 -230 -215q-29 1 -45 5l10 57q16 -4 35 -4z" />
    <glyph glyph-name="circumflex" unicode="&#x2c6;" 
d="M586 1317l139 -260h-59l-111 211l-188 -211h-68l233 260h54z" />
    <glyph glyph-name="caron" unicode="&#x2c7;" 
d="M438 1061l-139 260h59l111 -211l188 211h68l-233 -260h-54z" />
    <glyph glyph-name="breve" unicode="&#x2d8;" 
d="M481 1044q-82 0 -129 62t-26 172h55q-17 -86 13 -134t89 -48t106 48q46 48 62 134h56q-20 -110 -82 -172t-144 -62z" />
    <glyph glyph-name="dotaccent" unicode="&#x2d9;" 
d="M559 1186q0 -20 -13 -34q-14 -14 -34 -15q-20 0 -34 14q-13 15 -13 35t13 34q14 14 34 15q20 0 34 -14q13 -15 13 -35z" />
    <glyph glyph-name="ring" unicode="&#x2da;" 
d="M508 1030q-66 0 -112 43q-44 43 -44 109t47 114t113 50q66 0 112 -43q44 -43 44 -109t-47 -115t-113 -49zM507 1081q44 0 77 32q32 32 32 77t-29 75q-30 29 -74 29t-77 -32t-33 -76q0 -45 30 -75t74 -30z" />
    <glyph glyph-name="ogonek" unicode="&#x2db;" 
d="M465 -275q0 -42 39 -42t84 28l-10 -51q-39 -27 -79 -27t-65 23q-24 22 -24 52q1 81 40 135q7 11 22 36t37 54t50 73h59q-96 -139 -124 -189t-29 -92z" />
    <glyph glyph-name="tilde" unicode="&#x2dc;" 
d="M610 1073q-43 0 -78 36q-34 36 -64 72t-60 36q-78 0 -103 -138h-53q16 91 58 143t104 52q34 0 64 -23t47 -49q46 -72 91 -72q78 1 103 138h53q-37 -195 -162 -195z" />
    <glyph glyph-name="hungarumlaut" unicode="&#x2dd;" 
d="M547 1071h-66l207 260h66zM336 1071h-66l207 260h66z" />
    <glyph glyph-name="Wgrave" unicode="&#x1e80;" horiz-adv-x="1542" 
d="M971 1358h-62l-131 239h62zM895 1257h53l96 -1140l537 1140h64l-592 -1257h-56l-98 1137l-534 -1137h-56l-108 1257h61l96 -1140z" />
    <glyph glyph-name="wgrave" unicode="&#x1e81;" horiz-adv-x="1200" 
d="M743 1071h-59l-129 260h59zM700 909l78 -788l404 788h61l-465 -909h-43l-78 797l-405 -797h-43l-92 909h57l82 -788l399 788h45z" />
    <glyph glyph-name="Wacute" unicode="&#x1e82;" horiz-adv-x="1542" 
d="M971 1358h-72l217 239h72zM895 1257h53l96 -1140l537 1140h64l-592 -1257h-56l-98 1137l-534 -1137h-56l-108 1257h61l96 -1140z" />
    <glyph glyph-name="wacute" unicode="&#x1e83;" horiz-adv-x="1200" 
d="M737 1071h-69l219 260h69zM700 909l78 -788l404 788h61l-465 -909h-43l-78 797l-405 -797h-43l-92 909h57l82 -788l399 788h45z" />
    <glyph glyph-name="Wdieresis" unicode="&#x1e84;" horiz-adv-x="1542" 
d="M1024 1454q0 20 13 34t33 13q20 0 34 -13q14 -14 14 -34t-13 -34t-33 -13q-20 0 -35 13q-13 14 -13 34zM791 1454q0 20 13 34q14 14 34 13q20 0 33 -13q13 -14 13 -34t-12 -34q-14 -14 -34 -13q-20 0 -34 13q-13 14 -13 34zM895 1257h53l96 -1140l537 1140h64l-592 -1257
h-56l-98 1137l-534 -1137h-56l-108 1257h61l96 -1140z" />
    <glyph glyph-name="wdieresis" unicode="&#x1e85;" horiz-adv-x="1200" 
d="M795 1167q0 19 13 33q14 14 34 14t34 -13t13 -33q0 -20 -13 -34q-14 -14 -34 -14t-34 14t-13 33zM561 1167q0 19 13 33q14 14 34 14t34 -13t13 -33q0 -20 -13 -34q-14 -14 -34 -14t-34 14t-13 33zM700 909l78 -788l404 788h61l-465 -909h-43l-78 797l-405 -797h-43
l-92 909h57l82 -788l399 788h45z" />
    <glyph glyph-name="Ygrave" unicode="&#x1ef2;" horiz-adv-x="1062" 
d="M735 1358h-61l-131 239h61zM565 608l535 649h74l-584 -708l-96 -549h-64l96 549l-333 708h67z" />
    <glyph glyph-name="ygrave" unicode="&#x1ef3;" horiz-adv-x="851" 
d="M557 1071h-59l-129 260h59zM137 -348h-65l227 377l-182 880h63l162 -807l485 807h68z" />
    <glyph glyph-name="endash" unicode="&#x2013;" horiz-adv-x="972" 
d="M90 502l8 55h809l-8 -55h-809z" />
    <glyph glyph-name="emdash" unicode="&#x2014;" horiz-adv-x="1732" 
d="M90 502l8 55h1569l-8 -55h-1569z" />
    <glyph glyph-name="quoteleft" unicode="&#x2018;" horiz-adv-x="247" 
d="M262 1016q0 -23 -15 -39t-38 -16t-38 16t-15 40t22 58l123 182h51l-129 -192q39 -6 39 -49z" />
    <glyph glyph-name="quoteright" unicode="&#x2019;" horiz-adv-x="247" 
d="M213 1219q0 23 15 39t38 16t38 -16t15 -42q0 -24 -22 -57l-123 -182h-51l129 192q-39 6 -39 50z" />
    <glyph glyph-name="quotesinglbase" unicode="&#x201a;" horiz-adv-x="206" 
d="M27 49q0 23 15 39t38 16t38 -16t15 -40t-22 -58l-123 -183h-51l129 193q-39 6 -39 49z" />
    <glyph glyph-name="quotedblleft" unicode="&#x201c;" horiz-adv-x="454" 
d="M469 1016q0 -23 -15 -39t-38 -16t-38 16q-34 37 7 98l123 182h51l-129 -192q39 -6 39 -49zM262 1016q0 -23 -15 -39t-38 -16t-38 16t-15 40t22 58l123 182h51l-129 -192q39 -6 39 -49z" />
    <glyph glyph-name="quotedblright" unicode="&#x201d;" horiz-adv-x="454" 
d="M420 1219q0 23 15 39t38 16t38 -16t15 -42q0 -24 -22 -57l-123 -182h-51l129 192q-39 6 -39 50zM213 1219q0 23 15 39t38 16t38 -16t15 -42q0 -24 -22 -57l-123 -182h-51l129 192q-39 6 -39 50z" />
    <glyph glyph-name="quotedblbase" unicode="&#x201e;" horiz-adv-x="454" 
d="M233 49q-1 23 15 39t39 16t38 -16t15 -40t-23 -58l-122 -183h-52l129 193q-39 6 -39 49zM27 49q0 23 15 39t38 16t38 -16t15 -40t-22 -58l-123 -183h-51l129 193q-39 6 -39 49z" />
    <glyph glyph-name="dagger" unicode="&#x2020;" horiz-adv-x="589" 
d="M174 1090l10 53h203l33 188h57l-33 -188h203l-10 -53h-203l-72 -414h-57l72 414h-203z" />
    <glyph glyph-name="daggerdbl" unicode="&#x2021;" horiz-adv-x="589" 
d="M174 1085l10 54h201l35 192h57l-35 -192h205l-10 -54h-203l-28 -163h202l-10 -54h-203l-33 -192h-57l33 192h-203l10 54h203l29 163h-203z" />
    <glyph glyph-name="bullet" unicode="&#x2022;" horiz-adv-x="665" 
d="M592 530q0 -110 -73 -180t-179 -70t-178 72q-72 70 -72 178t72 180q72 70 178 70t179 -70t73 -180z" />
    <glyph glyph-name="ellipsis" unicode="&#x2026;" horiz-adv-x="806" 
d="M569 51q-1 23 15 39t39 16t37 -16t16 -39q0 -23 -16 -39t-38 -16t-38 16t-15 39zM287 51q0 23 15 39t38 16t38 -16t15 -39t-15 -39t-38 -16t-38 16t-15 39zM4 51q0 23 15 39t38 16t38 -16t15 -39t-14 -39q-16 -16 -39 -16t-38 16t-15 39z" />
    <glyph glyph-name="perthousand" unicode="&#x2030;" horiz-adv-x="1742" 
d="M1433 424q-77 0 -135 -58t-57 -136q0 -78 54 -132q54 -53 131 -53t135 58q57 59 57 137t-54 131t-131 53zM1425 -16q-104 0 -175 70t-70 171q0 102 74 182q76 79 180 79t175 -70t71 -172t-75 -182q-76 -78 -180 -78zM859 424q-77 0 -134 -58t-57 -136t54 -132
q54 -53 131 -53t134 58q57 59 57 137t-54 131t-131 53zM1106 244q0 -102 -75 -181t-179 -79t-175 70t-71 171t75 181t179 80t175 -70t71 -172zM74 0l1024 1257h65l-1024 -1257h-65zM378 834q77 0 134 58t57 136t-54 131t-131 53t-134 -58t-57 -136t54 -131t131 -53z
M385 1274q104 0 175 -70t71 -172t-75 -181t-179 -79t-175 70t-71 172t75 181t179 79z" />
    <glyph glyph-name="guilsinglleft" unicode="&#x2039;" horiz-adv-x="358" 
d="M272 193h-61l-141 262l233 262h74l-240 -268z" />
    <glyph glyph-name="guilsinglright" unicode="&#x203a;" horiz-adv-x="358" 
d="M106 717h62l141 -262l-233 -262h-74l240 268z" />
    <glyph glyph-name="fraction" unicode="&#x2044;" horiz-adv-x="407" 
d="M766 1257l-1059 -1257h-65l1058 1257h66z" />
    <glyph glyph-name="Euro" unicode="&#x20ac;" horiz-adv-x="1019" 
d="M779 1274q200 0 302 -117l-14 -76q-103 131 -281 131t-310 -122t-187 -326h487l-22 -55h-480q-18 -92 -20 -170h442l-24 -56h-420v-4q0 -201 88 -317t242 -117q98 0 171 25t152 88l-14 -78q-123 -96 -306 -96t-290 132q-106 132 -107 363v4h-131l11 56h122q2 74 21 170
h-113l8 55h117q61 230 209 370t347 140z" />
    <glyph glyph-name="uni2117" unicode="&#x2117;" horiz-adv-x="1454" 
d="M1014 794q0 74 -47 116t-133 42h-211v-315h211q88 0 134 41t46 116zM834 578h-211v-324h-62v756h273q113 0 176 -56t63 -160t-62 -160t-177 -56zM1358 629q0 254 -172 423t-420 169t-420 -169t-172 -423t172 -423t420 -169t420 169t172 423zM1411 629q0 -279 -187 -462
q-188 -183 -458 -183t-458 183q-187 183 -187 462t187 462q188 183 458 183t458 -183t187 -462z" />
    <glyph glyph-name="trademark" unicode="&#x2122;" horiz-adv-x="1128" 
d="M850 864h-8l-127 287l-74 -414h-57l92 520h53l131 -303l240 303h51l-92 -520h-58l74 414zM147 1208l9 49h422l-9 -49h-182l-84 -471h-57l84 471h-183z" />
    <glyph glyph-name="uni2153" unicode="&#x2153;" horiz-adv-x="1320" 
d="M479 1262l-119 -674h-59l107 600l-191 -90l10 63l215 101h37zM1235 672v-4l-238 -267q72 -6 118 -53t46 -133t-74 -156q-74 -69 -179 -69t-179 61l12 66q59 -72 153 -72t153 51q57 52 57 122t-47 108t-125 36h-29v5l223 249h-297l11 56h395zM1200 1257l-1059 -1257h-65
l1059 1257h65z" />
    <glyph glyph-name="uni2154" unicode="&#x2154;" horiz-adv-x="1421" 
d="M1335 672v-4l-237 -267q72 -6 118 -53t46 -133t-74 -156q-74 -69 -179 -69t-180 61l13 66q60 -72 154 -72t151 51q57 52 57 122t-47 108t-125 36h-28v5l223 249h-297l10 56h395zM115 584v4l260 256q52 52 70 68t41 43q63 74 63 147q0 106 -119 106q-98 0 -209 -94l12 68
q94 84 209 84q80 0 123 -42t43 -106t-32 -120q-32 -58 -62 -90q-31 -32 -96 -95l-180 -174h311l-10 -55h-424zM1300 1257l-1058 -1257h-66l1059 1257h65z" />
    <glyph glyph-name="uni215B" unicode="&#x215b;" horiz-adv-x="1306" 
d="M980 383q60 0 104 40t44 93t-37 84q-38 31 -99 31q-60 0 -104 -40t-44 -94t38 -84t98 -30zM918 -10q-93 0 -156 46q-64 46 -64 125t50 133t122 68q-86 40 -86 126t62 140t146 54t140 -44t56 -110t-41 -112q-41 -47 -100 -66q111 -45 111 -144q0 -100 -74 -158
q-73 -58 -166 -58zM758 178q0 -62 45 -100q45 -37 115 -37t125 45q55 44 55 108t-45 101t-117 37t-125 -46t-53 -108zM479 1262l-119 -674h-59l107 600l-191 -90l10 63l215 101h37zM1200 1257l-1059 -1257h-65l1059 1257h65z" />
    <glyph glyph-name="uni215C" unicode="&#x215c;" horiz-adv-x="1368" 
d="M1190 516q0 53 -38 84t-98 31t-105 -40q-44 -40 -44 -94t38 -84q39 -30 99 -30t104 40t44 93zM819 178q0 -62 45 -100q45 -37 116 -37t125 45q54 44 54 108t-45 101t-117 37t-125 -46t-53 -108zM643 1257v-4l-237 -266q72 -6 118 -53t45 -133q1 -86 -73 -156t-180 -70
t-179 62l13 65q59 -72 153 -72t152 52q57 52 57 122t-47 107t-125 37h-29v4l224 250h-297l10 55h395zM1262 1257l-1059 -1257h-66l1059 1257h66zM1219 206q0 -100 -73 -158t-166 -58t-157 46q-63 46 -63 125t50 133t122 68q-86 40 -86 126t61 140t147 54t140 -44
q55 -44 55 -110t-41 -112q-41 -47 -100 -66q111 -45 111 -144z" />
    <glyph glyph-name="uni215D" unicode="&#x215d;" horiz-adv-x="1368" 
d="M571 811q-1 -92 -75 -164t-183 -72t-176 60l13 65q57 -70 152 -70t154 53q58 53 58 123t-41 105t-109 35t-149 -33l61 344h340l-10 -55h-289l-36 -217q53 14 94 14q88 0 142 -48t54 -140zM1190 516q0 53 -38 84t-98 31t-105 -40q-44 -40 -44 -94t38 -84q39 -30 99 -30
t104 40t44 93zM1219 206q0 -100 -73 -158t-166 -58t-157 46q-63 46 -63 125t50 133t122 68q-86 40 -86 126t61 140t147 54t140 -44q55 -44 55 -110t-41 -112q-41 -47 -100 -66q111 -45 111 -144zM819 178q0 -62 45 -100q45 -37 116 -37t125 45q54 44 54 108t-45 101t-117 37
t-125 -46t-53 -108zM1262 1257l-1059 -1257h-66l1059 1257h66z" />
    <glyph glyph-name="uni215E" unicode="&#x215e;" horiz-adv-x="1265" 
d="M940 383q60 0 104 40t43 93q0 53 -37 84q-38 31 -99 31t-105 -40t-43 -94q0 -54 38 -84q39 -30 99 -30zM877 -10q-93 0 -156 46t-63 125t50 133t121 68q-86 40 -86 126q-1 86 61 140t147 54t141 -44t55 -110q0 -66 -41 -112q-41 -47 -100 -66q110 -45 110 -144
q0 -100 -73 -158t-166 -58zM717 178q0 -62 45 -100q46 -37 116 -37t124 45q54 44 54 108t-44 101q-45 37 -117 37t-125 -46t-53 -108zM676 1257l-424 -671h-62l392 616h-359l10 55h443zM1159 1257l-1059 -1257h-65l1059 1257h65z" />
    <glyph glyph-name="minus" unicode="&#x2212;" horiz-adv-x="1013" 
d="M162 569l10 60h727l-10 -60h-727z" />
    <glyph glyph-name="approxequal" unicode="&#x2248;" 
d="M678 479q98 0 219 107l-12 -74q-106 -94 -219 -94q-64 0 -160 52t-156 52q-92 0 -213 -106l13 73q109 94 212 95q64 0 160 -52t156 -53zM397 784q66 0 162 -52t154 -52q100 0 219 106l-12 -73q-106 -94 -218 -95q-63 0 -159 52t-156 53q-92 -1 -213 -107l12 74
q109 94 211 94z" />
    <glyph glyph-name="notequal" unicode="&#x2260;" 
d="M186 694l11 58h452l176 178h72l-176 -178h205l-11 -58h-251l-185 -186h404l-11 -57h-448l-178 -181h-72l178 181h-209l11 57h254l184 186h-406z" />
    <glyph glyph-name="lessequal" unicode="&#x2264;" horiz-adv-x="776" 
d="M74 258l10 59h530l-10 -59h-530zM139 633l8 49l572 229l-12 -67l-484 -191l418 -192l-12 -58z" />
    <glyph glyph-name="greaterequal" unicode="&#x2265;" horiz-adv-x="776" 
d="M702 682l-8 -49l-571 -230l12 68l483 191l-417 192l12 57zM639 317l-10 -59h-531l11 59h530z" />
    <glyph glyph-name="fi" unicode="&#xfb01;" horiz-adv-x="851" 
d="M842 1186q0 -20 -14 -34t-33 -15q-20 0 -34 14q-13 15 -13 35t13 34t33 15q20 -1 34 -15t14 -34zM778 909l-160 -909h-61l160 909h61zM580 1290q-82 0 -140 -56t-78 -161l-28 -164h219l-10 -57h-219l-150 -852h-61l149 852h-143l10 57h143l31 172q20 119 95 193t182 74
q59 -1 96 -15l-10 -59q-43 16 -86 16z" />
    <glyph glyph-name="fl" unicode="&#xfb02;" horiz-adv-x="851" 
d="M852 1331l-234 -1331h-61l234 1331h61zM580 1290q-82 0 -140 -56t-78 -161l-28 -164h219l-10 -57h-219l-150 -852h-61l149 852h-143l10 57h143l31 172q20 119 95 193t182 74q59 -1 96 -15l-10 -59q-43 16 -86 16z" />
    <glyph glyph-name="i.dot" horiz-adv-x="368" 
d="M360 1186q0 -20 -13 -34t-33 -15q-20 0 -34 14q-14 15 -14 35t14 34t33 15q20 0 34 -14q13 -15 13 -35zM295 909l-160 -909h-61l159 909h62z" />
    <glyph glyph-name="space_uni0326" 
d="M504 -154q0 23 15 39q15 17 38 17t38 -16t15 -42q0 -25 -22 -57l-92 -135h-52l99 145q-39 6 -39 49z" />
    <glyph glyph-name="space_uni0326.alt" 
d="M551 1137q0 -23 -15 -39t-38 -16t-38 16q-36 39 7 98l92 135h51l-98 -145q39 -6 39 -49z" />
    <glyph glyph-name="space_dotbelowcomb" 
d="M559 -233q0 -21 -13 -35q-14 -14 -34 -14t-34 14t-13 34q0 20 13 35q14 15 34 15t34 -14t13 -35z" />
    <glyph glyph-name="caron.Slovak" 
d="M457 1010h-58l164 321h58z" />
    <glyph glyph-name="cedilla.alt" 
d="M463 -348h-64l156 254h63z" />
    <glyph glyph-name="grave.cap" 
d="M610 1358h-61l-131 239h61z" />
    <glyph glyph-name="acute.cap" 
d="M440 1358h-71l217 239h71z" />
    <glyph glyph-name="circumflex.cap" 
d="M582 1604l143 -240h-59l-117 188l-182 -188h-68l229 240h54z" />
    <glyph glyph-name="caron.cap" 
d="M442 1343l-143 240h59l117 -188l182 188h68l-229 -240h-54z" />
    <glyph glyph-name="tilde.cap" 
d="M408 1503q-78 0 -103 -137h-53q16 90 58 142t90 52q77 1 124 -71q46 -72 92 -72q78 0 103 137h53q-37 -195 -162 -194q-43 0 -78 36q-34 36 -64 72t-60 35z" />
    <glyph glyph-name="macron.cap" 
d="M309 1372l8 55h396l-8 -55h-396z" />
    <glyph glyph-name="breve.cap" 
d="M481 1358q-82 0 -129 62t-26 171h55q-17 -86 13 -134t89 -48t106 48q46 48 62 134h56q-20 -111 -82 -172t-144 -61z" />
    <glyph glyph-name="dotaccent.cap" 
d="M559 1452q0 -20 -13 -34q-14 -14 -34 -15q-20 0 -34 14q-13 15 -13 35t13 34q14 14 34 15q20 0 34 -14q13 -15 13 -35z" />
    <glyph glyph-name="dieresis.cap" 
d="M582 1454q0 20 13 34t33 13q20 0 34 -13q14 -14 14 -34t-13 -34t-33 -13q-20 0 -35 13q-13 14 -13 34zM348 1454q0 20 13 34t33 13q20 0 34 -13q14 -14 14 -34t-13 -34t-33 -13q-20 0 -35 13q-13 14 -13 34z" />
    <glyph glyph-name="ring.cap" 
d="M508 1325q-66 0 -112 43q-44 43 -44 109q0 67 47 115t113 48t112 -43q44 -43 44 -109t-47 -114q-47 -49 -113 -49zM507 1376q44 0 77 32q32 32 32 77t-29 75q-30 30 -74 30t-77 -32t-33 -77t30 -75t74 -30z" />
    <glyph glyph-name="hungarumlaut.cap" 
d="M551 1358h-68l205 239h68zM340 1358h-68l205 239h68z" />
    <glyph glyph-name="exclamdown.cap" horiz-adv-x="425" 
d="M420 1206q0 -23 -16 -39t-38 -16t-37 16t-16 39t15 39q16 17 39 17t38 -16t15 -40zM326 864l-146 -864h-65l161 864h50z" />
    <glyph glyph-name="questiondown.cap" horiz-adv-x="849" 
d="M606 1206q0 -23 -15 -39t-38 -16t-38 16t-15 39t15 39q15 17 38 17t38 -16t15 -40zM348 43q199 0 402 195l-15 -82q-177 -172 -406 -172q-124 0 -203 72t-79 194q0 123 67 209q36 47 62 76q27 29 82 79t92 88q37 37 62 72t39 88h59q-24 -106 -139 -217q-11 -12 -55 -52
q-129 -119 -168 -192q-39 -74 -39 -160q0 -85 62 -141t177 -57z" />
    <glyph glyph-name="guilsinglleft.cap" horiz-adv-x="358" 
d="M313 377h-61l-141 262l233 262h74l-240 -268z" />
    <glyph glyph-name="guilsinglright.cap" horiz-adv-x="358" 
d="M147 901h62l141 -262l-233 -262h-74l240 268z" />
    <glyph glyph-name="guillemotleft.cap" horiz-adv-x="579" 
d="M535 377h-62l-141 262l233 262h74l-240 -268zM313 377h-61l-141 262l233 262h74l-240 -268z" />
    <glyph glyph-name="guillemotright.cap" horiz-adv-x="579" 
d="M147 901h62l141 -262l-233 -262h-74l240 268zM369 901h61l141 -262l-233 -262h-74l240 268z" />
    <glyph glyph-name="slash.cap" horiz-adv-x="587" 
d="M-78 -131l770 1503h64l-772 -1503h-62z" />
    <glyph glyph-name="backslash.cap" horiz-adv-x="587" 
d="M244 1372l243 -1503h-59l-244 1503h60z" />
    <glyph glyph-name="bar.cap" horiz-adv-x="399" 
d="M76 -131l264 1503h59l-264 -1503h-59z" />
    <glyph glyph-name="periodcentered.cap" horiz-adv-x="270" 
d="M113 614q0 23 15 39q15 17 38 17t38 -16t15 -40q0 -23 -15 -39t-38 -16t-38 16t-15 39z" />
    <glyph glyph-name="bullet.cap" horiz-adv-x="665" 
d="M612 612q0 -110 -72 -180t-180 -70q-106 0 -178 71t-72 179t72 180q72 70 178 70t180 -70q72 -71 72 -180z" />
    <glyph glyph-name="hyphen.cap" horiz-adv-x="657" 
d="M111 582l10 59h493l-10 -59h-493z" />
    <glyph glyph-name="endash.cap" horiz-adv-x="972" 
d="M111 584l8 55h809l-8 -55h-809z" />
    <glyph glyph-name="emdash.cap" horiz-adv-x="1732" 
d="M111 584l8 55h1569l-9 -55h-1568z" />
    <glyph glyph-name="parenleft.cap" horiz-adv-x="671" 
d="M84 461q0 329 187 569t509 332l-10 -59q-295 -101 -460 -319t-165 -523q1 -213 99 -351t282 -194l-10 -57q-208 57 -320 215t-112 387z" />
    <glyph glyph-name="parenright.cap" horiz-adv-x="671" 
d="M643 760q0 -330 -187 -570t-509 -331l10 59q295 102 460 320t165 522q0 213 -98 351t-283 194l10 57q207 -57 319 -215t113 -387z" />
    <glyph glyph-name="bracketleft.cap" horiz-adv-x="634" 
d="M381 1305l-244 -1389h344l-10 -57h-403l264 1503h403l-10 -57h-344z" />
    <glyph glyph-name="bracketright.cap" horiz-adv-x="634" 
d="M299 -84l244 1389h-344l10 57h403l-264 -1503h-403l10 57h344z" />
    <glyph glyph-name="braceleft.cap" horiz-adv-x="675" 
d="M281 -84h241l-10 -57h-242q-68 0 -104 45t-23 116l80 457q18 104 -78 105h-79l10 57h80q96 0 114 104l80 457q12 72 64 117t121 45h241l-10 -57h-242q-96 0 -114 -105l-80 -457q-16 -92 -101 -135q68 -47 54 -131l-80 -457q-18 -104 78 -104z" />
    <glyph glyph-name="braceright.cap" horiz-adv-x="675" 
d="M451 1362q67 0 103 -45t24 -117l-80 -457q-18 -104 77 -104h80l-10 -57h-80q-96 0 -114 -105l-80 -457q-13 -72 -65 -116t-120 -45h-241l10 57h242q96 0 114 104l80 457q16 92 101 135q-68 47 -54 131l80 457q18 104 -78 105h-241l10 57h242z" />
    <glyph glyph-name="at.cap" horiz-adv-x="1585" 
d="M870 924q-145 0 -240 -131t-95 -283q0 -98 51 -154t137 -57q133 0 256 162l72 305q-19 70 -67 114t-114 44zM1128 293q145 0 249 127q103 127 103 349q0 221 -156 363q-157 142 -413 142q-321 0 -533 -224t-212 -524t191 -449t449 -149t447 90l-6 -59q-195 -86 -422 -86
q-295 0 -498 151q-101 74 -161 198t-60 286q0 342 230 583t577 240q283 0 455 -159q172 -160 172 -406t-125 -387t-291 -141q-72 0 -116 34t-47 99q-111 -127 -236 -127t-186 72t-62 194q0 180 113 324t282 145q74 0 126 -39t75 -92l29 117h57l-131 -541q-31 -131 100 -131z
" />
    <glyph glyph-name="Euro.lt" horiz-adv-x="1064" 
d="M790 1274q200 0 302 -117l-15 -76q-102 131 -280 131t-311 -121q-132 -122 -187 -327h487l-22 -55h-479q-18 -92 -21 -170h443l-25 -56h-420v-4q0 -201 88 -317t242 -117q98 0 171 25t152 88l-14 -78q-123 -96 -306 -96t-290 132q-106 132 -106 363v4h-131l10 56h123
q2 74 20 170h-112l8 55h116q61 230 209 370t348 140z" />
    <glyph glyph-name="dollar.lt" horiz-adv-x="1064" 
d="M457 94q156 0 250 77t94 204q0 67 -41 111t-142 94l-159 75q-203 94 -203 248t116 237t271 85l35 192h57l-35 -194q156 -16 248 -97l-14 -73q-109 111 -287 110q-139 -1 -234 -67t-96 -195q1 -67 47 -111t138 -88l162 -77q102 -49 150 -107t48 -143q0 -143 -105 -237
t-265 -105l-37 -201h-58l35 201q-209 6 -311 123l12 75q125 -137 324 -137z" />
    <glyph glyph-name="cent.lt" horiz-adv-x="1064" 
d="M170 381q0 233 127 388t313 171l33 195h57l-32 -191q147 -4 225 -84l-12 -67q-88 94 -240 94t-280 -138t-128 -368q0 -143 77 -233t210 -89q133 0 244 76l-12 -69q-96 -63 -232 -64h-20l-29 -170h-57l30 176q-130 23 -202 121t-72 252z" />
    <glyph glyph-name="sterling.lt" horiz-adv-x="1064" 
d="M812 1274q166 0 243 -60l-11 -63q-88 63 -219 63q-311 0 -374 -376l-35 -191h368l-10 -57h-368l-60 -342q-20 -115 -84 -187h625l-10 -61h-828l10 61h140q68 86 86 187l59 342h-192l10 57h192l33 189q37 210 148 324t277 114z" />
    <glyph glyph-name="yen.lt" horiz-adv-x="1064" 
d="M111 309l10 56h319l31 170h-319l8 55h321l-299 667h66l270 -610l488 610h75l-536 -667h321l-8 -55h-323l-31 -170h323l-10 -56h-321l-54 -309h-63l53 309h-321z" />
    <glyph glyph-name="florin.lt" horiz-adv-x="1064" 
d="M926 1274q72 0 121 -25l-7 -61q-57 29 -114 29q-145 0 -205 -199l-105 -338h201l-10 -53h-207l-221 -727q-77 -248 -239 -248q-84 0 -132 24l6 62q57 -29 123 -29t107 46t73 153l220 719h-170l10 53h176l106 346q78 248 267 248z" />
    <glyph glyph-name="zero.lt" horiz-adv-x="1064" 
d="M469 -16q-176 0 -279 132q-102 132 -102 357q0 325 157 563t392 238q176 0 278 -132t103 -358q0 -326 -156 -563t-393 -237zM467 43q205 0 346 220t141 521q0 199 -84 315t-231 115q-205 0 -346 -220t-141 -521q0 -199 84 -315t231 -115z" />
    <glyph glyph-name="one.lt" horiz-adv-x="1064" 
d="M70 0l10 61h403l197 1121l-422 -201l12 70l447 211h41l-211 -1201h346l-10 -61h-813z" />
    <glyph glyph-name="two.lt" horiz-adv-x="1064" 
d="M14 0v8l521 481q10 10 114 103t133 139q29 45 64 103t36 158q2 102 -62 162t-193 60q-197 0 -396 -176l15 80q178 156 391 156q151 0 229 -76t78 -192t-35 -178t-52 -91q-46 -78 -294 -297l-409 -379h708l-10 -61h-838z" />
    <glyph glyph-name="three.lt" horiz-adv-x="1064" 
d="M1026 1257v-8l-506 -491q154 -4 257 -92t104 -230q1 -182 -141 -316t-347 -134t-336 112l15 80q113 -133 327 -133q170 0 295 114t125 277q0 125 -95 198t-249 73q-25 0 -74 -5v9l492 485h-641l12 61h762z" />
    <glyph glyph-name="four.lt" horiz-adv-x="1064" 
d="M66 326v8l583 923h68l-549 -870h502l55 318h63l-55 -318h250l-10 -61h-250l-57 -326h-64l57 326h-593z" />
    <glyph glyph-name="five.lt" horiz-adv-x="1064" 
d="M891 434q0 -182 -140 -316t-339 -134t-336 116l12 76q113 -133 326 -133q168 0 292 114t123 277q0 123 -86 195q-85 71 -215 71t-211 -30q-27 -10 -81 -33l114 620h627l-12 -61h-572l-84 -473q98 37 213 37q164 0 266 -88t103 -238z" />
    <glyph glyph-name="six.lt" horiz-adv-x="1064" 
d="M492 43q146 0 259 114t113 265q0 152 -91 244t-237 92t-261 -112q-113 -112 -113 -263t92 -245t238 -95zM541 817q171 1 279 -109t108 -285t-132 -307t-304 -132q-170 0 -282 108t-112 276q0 167 131 330l449 559h74l-396 -493q86 53 185 53z" />
    <glyph glyph-name="seven.lt" horiz-adv-x="1064" 
d="M1069 1257v-8l-788 -1249h-72l758 1196h-762l12 61h852z" />
    <glyph glyph-name="eight.lt" horiz-adv-x="1064" 
d="M924 980q0 108 -80 172t-210 64t-224 -83t-94 -193t81 -174q82 -64 210 -64q129 0 223 85t94 193zM488 -16q-176 0 -290 86t-114 231t95 249t243 136q-78 34 -123 100t-45 148q0 137 112 238q112 102 266 102t254 -78t99 -198q0 -120 -77 -210t-197 -122
q104 -41 162 -119t59 -180q0 -160 -134 -272q-135 -111 -310 -111zM522 647q-152 -1 -264 -99t-111 -226t97 -204t246 -77q150 0 265 95q113 94 113 226t-97 208t-249 77z" />
    <glyph glyph-name="nine.lt" horiz-adv-x="1064" 
d="M544 500q146 0 260 112t114 262q0 152 -92 246t-238 94t-260 -114t-113 -264q0 -152 91 -244t238 -92zM587 1274q171 0 283 -109t111 -275q0 -166 -131 -331l-449 -559h-73l395 494q-86 -53 -184 -54q-170 0 -279 110q-108 110 -108 284t132 308q132 132 303 132z" />
    <glyph glyph-name="period.tab" horiz-adv-x="532" 
d="M121 51q0 23 15 39t38 16t38 -16t15 -39t-15 -39t-38 -16t-38 16t-15 39z" />
    <glyph glyph-name="comma.tab" horiz-adv-x="532" 
d="M121 51q0 23 15 39t38 16t38 -16t15 -40t-22 -58l-129 -191h-51l135 201q-39 6 -39 49z" />
    <glyph glyph-name="colon.tab" horiz-adv-x="532" 
d="M244 748q0 22 15 38t38 16t38 -16t15 -38t-15 -39t-38 -17t-38 16t-15 40zM121 51q0 23 15 39t38 16t38 -16t15 -39t-15 -39t-38 -16t-38 16t-15 39z" />
    <glyph glyph-name="semicolon.tab" horiz-adv-x="532" 
d="M244 748q0 22 15 38t38 16t38 -16t15 -38t-15 -39t-38 -17t-38 16t-15 40zM121 51q0 23 15 39t38 16t38 -16t15 -40t-22 -58l-129 -191h-51l135 201q-39 6 -39 49z" />
    <glyph glyph-name="space.tab" horiz-adv-x="532" 
 />
    <glyph glyph-name="percent.lt" horiz-adv-x="1064" 
d="M1036 1257l-925 -1257h-66l926 1257h65zM730 424q-77 0 -134 -58t-57 -136t54 -132q54 -53 131 -53t134 58q57 59 57 137t-54 131t-131 53zM977 244q0 -102 -75 -181t-179 -79t-175 70t-71 171t75 181t179 80t175 -70t71 -172zM351 834q77 0 134 58t57 136t-54 131
t-131 53t-134 -58t-57 -136t54 -131t131 -53zM358 1274q104 0 176 -70t70 -172q0 -102 -75 -181t-179 -79t-175 70t-71 172t75 181t179 79z" />
    <glyph glyph-name="perthousand.lt" horiz-adv-x="1638" 
d="M1320 424q-77 0 -134 -58q-58 -58 -58 -136t54 -132q54 -53 132 -53q77 0 134 58q57 59 57 137t-54 131t-131 53zM1567 244q0 -102 -75 -181t-179 -79t-175 70t-71 171t75 181t179 80t175 -70t71 -172zM1057 1257l-926 -1257h-65l925 1257h66zM751 424q-77 0 -135 -58
t-57 -136q0 -78 54 -132q54 -53 131 -53t135 58q57 59 57 137t-54 131t-131 53zM743 -16q-104 0 -175 70t-70 171q0 102 74 182q76 79 180 79t175 -70t71 -172t-75 -182q-76 -78 -180 -78zM372 834q77 0 134 58t57 136t-54 131t-131 53t-134 -58q-58 -58 -58 -136t54 -131
t132 -53zM379 1274q104 0 175 -70t71 -172t-75 -181t-179 -79t-175 70t-71 172t75 181t179 79z" />
    <glyph glyph-name="plus.lt" horiz-adv-x="1064" 
d="M565 963h60l-60 -334h336l-10 -60h-336l-57 -333h-60l58 333h-332l10 60h332z" />
    <glyph glyph-name="minus.lt" horiz-adv-x="1064" 
d="M164 569l10 60h727l-10 -60h-727z" />
    <glyph glyph-name="multiply.lt" horiz-adv-x="1064" 
d="M496 596l-205 250l43 37l203 -250l288 250l35 -39l-289 -250l201 -250l-43 -37l-203 248l-288 -248l-35 39z" />
    <glyph glyph-name="divide.lt" horiz-adv-x="1064" 
d="M426 299q0 23 15 39t38 16t38 -16t15 -39t-15 -39t-38 -16t-38 16t-15 39zM528 901q0 23 16 39t38 16q23 0 38 -16t15 -39t-15 -39t-38 -16q-22 0 -38 16t-16 39zM164 569l10 60h727l-10 -60h-727z" />
    <glyph glyph-name="equal.lt" horiz-adv-x="1064" 
d="M184 694l11 60h729l-11 -60h-729zM141 449l11 59h729l-11 -59h-729z" />
    <glyph glyph-name="less.lt" horiz-adv-x="1064" 
d="M236 571l8 50l583 305l-12 -70l-514 -264l420 -264l-10 -62z" />
    <glyph glyph-name="greater.lt" horiz-adv-x="1064" 
d="M827 621l-8 -50l-583 -305l12 70l514 264l-420 264l10 62z" />
    <glyph glyph-name="plusminus.lt" horiz-adv-x="1064" 
d="M125 238l10 59h727l-10 -59h-727zM590 979h59l-45 -252h334l-10 -59h-334l-45 -252h-60l46 252h-334l10 59h334z" />
    <glyph glyph-name="lessequal.lt" horiz-adv-x="1064" 
d="M209 258l10 59h531l-11 -59h-530zM274 633l9 49l571 229l-12 -67l-484 -191l418 -192l-12 -58z" />
    <glyph glyph-name="greaterequal.lt" horiz-adv-x="1064" 
d="M834 682l-9 -49l-571 -230l12 68l484 191l-418 192l12 57zM770 317l-10 -59h-531l11 59h530z" />
    <glyph glyph-name="notequal.lt" horiz-adv-x="1064" 
d="M184 694l11 58h452l176 178h72l-176 -178h205l-11 -58h-251l-185 -186h404l-11 -57h-448l-178 -181h-72l178 181h-209l11 57h254l184 186h-406z" />
    <glyph glyph-name="approxequal.lt" horiz-adv-x="1064" 
d="M676 479q98 0 219 107l-12 -74q-106 -94 -219 -94q-64 0 -160 52t-156 52q-92 0 -213 -106l12 73q109 94 213 95q62 0 160 -52t156 -53zM395 784q63 0 159 -52t157 -52q100 0 219 106l-12 -73q-106 -94 -218 -95q-63 0 -159 52t-156 53q-92 -1 -213 -107l12 74
q109 94 211 94z" />
    </font>
</defs>
</svg>
